<svg width="1348" height="530" viewBox="0 0 1348 530" fill="none" xmlns="http://www.w3.org/2000/svg">
<path d="M233.155 222.34L233.59 220.388L233.582 220.386L233.155 222.34ZM298.96 181.75H296.96V183.75H298.96V181.75ZM407.815 181.75V183.75H409.815V181.75H407.815ZM184.57 306.595L185.037 304.65L185.03 304.649L184.57 306.595ZM118.765 360.715H120.765V358.715H118.765V360.715ZM0.685 360.715V358.715H-1.315V360.715H0.685ZM233.582 220.386C204.001 213.915 176.856 207.805 157.095 198.989C137.304 190.159 125.685 178.976 125.685 162.685H121.685C121.685 181.449 135.281 193.636 155.465 202.641C175.679 211.66 203.269 217.85 232.728 224.294L233.582 220.386ZM125.685 162.685C125.685 145.889 136.646 133.676 151.988 125.554C167.331 117.431 186.678 113.64 202.405 113.64V109.64C186.152 109.64 166.139 113.536 150.117 122.019C134.094 130.501 121.685 143.811 121.685 162.685H125.685ZM202.405 113.64C225.799 113.64 249.584 119.267 267.451 129.445C285.333 139.631 296.96 154.15 296.96 171.91H300.96C300.96 152.155 287.987 136.539 269.431 125.969C250.859 115.39 226.366 109.64 202.405 109.64V113.64ZM296.96 171.91V181.75H300.96V171.91H296.96ZM298.96 183.75H407.815V179.75H298.96V183.75ZM409.815 181.75V171.91H405.815V181.75H409.815ZM409.815 171.91C409.815 124.553 389.545 84.1709 354.81 55.6664C320.102 27.1839 271.042 10.625 213.475 10.625V14.625C270.298 14.625 318.408 30.9685 352.273 58.7585C386.11 86.5266 405.815 125.787 405.815 171.91H409.815ZM213.475 10.625C151.045 10.625 99.3748 26.3854 63.2631 54.4808C27.104 82.6132 6.68 123.018 6.68 171.91H10.68C10.68 124.247 30.5385 85.0092 65.7194 57.6379C100.948 30.2296 151.675 14.625 213.475 14.625V10.625ZM6.68 171.91C6.68 219.248 31.6925 248.883 66.3354 268.89C100.847 288.821 145.126 299.332 184.11 308.541L185.03 304.649C145.909 295.408 102.243 285.009 68.3359 265.426C34.56 245.92 10.68 217.437 10.68 171.91H6.68ZM184.103 308.54C214.929 315.938 243.304 322.658 263.998 332.092C284.718 341.538 296.96 353.334 296.96 370.555H300.96C300.96 350.876 286.757 338.072 265.657 328.453C244.531 318.822 215.711 312.012 185.037 304.65L184.103 308.54ZM296.96 370.555C296.96 392.17 286.384 405.992 270.419 414.532C254.312 423.147 232.709 426.365 211.015 426.365V430.365C232.986 430.365 255.355 427.125 272.305 418.059C289.396 408.918 300.96 393.835 300.96 370.555H296.96ZM211.015 426.365C188.113 426.365 165.416 422.693 148.522 413.833C131.734 405.028 120.765 391.181 120.765 370.555H116.765C116.765 392.979 128.859 408.037 146.664 417.375C164.364 426.657 187.792 430.365 211.015 430.365V426.365ZM120.765 370.555V360.715H116.765V370.555H120.765ZM118.765 358.715H0.685V362.715H118.765V358.715ZM-1.315 360.715V370.555H2.685V360.715H-1.315ZM-1.315 370.555C-1.315 415.733 17.5494 455.956 51.5101 484.854C85.4539 513.737 134.372 531.225 194.41 531.225V527.225C135.138 527.225 87.1936 509.965 54.1024 481.807C21.0281 453.664 2.685 414.552 2.685 370.555H-1.315ZM194.41 531.225C266.353 531.225 321.278 513.936 358.258 484.04C395.287 454.106 414.12 411.691 414.12 361.945H410.12C410.12 410.599 391.746 451.824 355.743 480.93C319.692 510.074 265.762 527.225 194.41 527.225V531.225ZM414.12 361.945C414.12 336.686 407.838 316.24 397.082 299.526C386.336 282.829 371.193 269.963 353.625 259.741C318.559 239.337 273.491 229.289 233.59 220.388L232.72 224.292C272.769 233.226 317.184 243.165 351.613 263.198C368.792 273.194 383.4 285.659 393.718 301.691C404.025 317.706 410.12 337.389 410.12 361.945H414.12ZM786.617 407.455L784.971 406.319L784.127 407.54L785.052 408.701L786.617 407.455ZM841.352 254.32H843.352V252.32H841.352V254.32ZM752.792 254.32V252.32H750.835L750.792 254.277L752.792 254.32ZM727.577 336.115L726.061 337.42L727.924 339.583L729.321 337.093L727.577 336.115ZM656.237 253.09L655.168 251.4L653.219 252.632L654.714 254.387L656.237 253.09ZM739.262 132.55L737.268 132.395L737.267 132.403L737.266 132.41L739.262 132.55ZM645.167 14.47L644.838 16.4428L644.844 16.4438L645.167 14.47ZM490.187 99.955L492.14 100.386L492.142 100.377L490.187 99.955ZM521.552 235.255L522.566 236.978L524.409 235.893L523.203 234.127L521.552 235.255ZM722.657 475.72L724.266 474.532L723.043 472.875L721.422 474.147L722.657 475.72ZM754.637 519.385L753.017 520.558L753.616 521.385H754.637V519.385ZM875.792 519.385V521.385H879.942L877.356 518.139L875.792 519.385ZM580.592 115.33L578.684 114.73L578.678 114.75L578.672 114.769L580.592 115.33ZM629.792 90.73L629.137 92.62L629.157 92.6269L629.178 92.6334L629.792 90.73ZM656.852 141.775L654.935 141.204L654.932 141.212L654.93 141.221L656.852 141.775ZM600.272 187.285L598.844 188.685L599.677 189.535L600.821 189.208L600.272 187.285ZM627.947 436.36L628.686 438.218L628.689 438.217L627.947 436.36ZM576.902 297.37L578.418 296.065L577.298 294.764L575.842 295.674L576.902 297.37ZM668.537 408.07L669.865 409.565L671.303 408.287L670.082 406.801L668.537 408.07ZM788.262 408.591C824.107 356.678 843.352 297.864 843.352 254.32H839.352C839.352 296.876 820.466 354.912 784.971 406.319L788.262 408.591ZM841.352 252.32C841.307 252.32 841.263 252.32 841.218 252.32C841.173 252.32 841.128 252.32 841.083 252.32C841.038 252.32 840.993 252.32 840.947 252.32C840.902 252.32 840.856 252.32 840.81 252.32C840.765 252.32 840.719 252.32 840.673 252.32C840.627 252.32 840.58 252.32 840.534 252.32C840.488 252.32 840.441 252.32 840.394 252.32C840.348 252.32 840.301 252.32 840.254 252.32C840.207 252.32 840.16 252.32 840.112 252.32C840.065 252.32 840.017 252.32 839.97 252.32C839.922 252.32 839.874 252.32 839.826 252.32C839.778 252.32 839.73 252.32 839.682 252.32C839.634 252.32 839.585 252.32 839.537 252.32C839.488 252.32 839.44 252.32 839.391 252.32C839.342 252.32 839.293 252.32 839.244 252.32C839.194 252.32 839.145 252.32 839.096 252.32C839.046 252.32 838.996 252.32 838.947 252.32C838.897 252.32 838.847 252.32 838.797 252.32C838.747 252.32 838.696 252.32 838.646 252.32C838.596 252.32 838.545 252.32 838.494 252.32C838.444 252.32 838.393 252.32 838.342 252.32C838.291 252.32 838.24 252.32 838.189 252.32C838.137 252.32 838.086 252.32 838.034 252.32C837.983 252.32 837.931 252.32 837.879 252.32C837.827 252.32 837.775 252.32 837.723 252.32C837.671 252.32 837.619 252.32 837.566 252.32C837.514 252.32 837.461 252.32 837.409 252.32C837.356 252.32 837.303 252.32 837.25 252.32C837.197 252.32 837.144 252.32 837.09 252.32C837.037 252.32 836.984 252.32 836.93 252.32C836.877 252.32 836.823 252.32 836.769 252.32C836.715 252.32 836.661 252.32 836.607 252.32C836.553 252.32 836.499 252.32 836.444 252.32C836.39 252.32 836.335 252.32 836.281 252.32C836.226 252.32 836.171 252.32 836.116 252.32C836.061 252.32 836.006 252.32 835.951 252.32C835.896 252.32 835.84 252.32 835.785 252.32C835.729 252.32 835.674 252.32 835.618 252.32C835.562 252.32 835.506 252.32 835.451 252.32C835.394 252.32 835.338 252.32 835.282 252.32C835.226 252.32 835.169 252.32 835.113 252.32C835.056 252.32 835 252.32 834.943 252.32C834.886 252.32 834.829 252.32 834.772 252.32C834.715 252.32 834.658 252.32 834.6 252.32C834.543 252.32 834.486 252.32 834.428 252.32C834.37 252.32 834.313 252.32 834.255 252.32C834.197 252.32 834.139 252.32 834.081 252.32C834.023 252.32 833.965 252.32 833.906 252.32C833.848 252.32 833.79 252.32 833.731 252.32C833.672 252.32 833.614 252.32 833.555 252.32C833.496 252.32 833.437 252.32 833.378 252.32C833.319 252.32 833.26 252.32 833.2 252.32C833.141 252.32 833.081 252.32 833.022 252.32C832.962 252.32 832.903 252.32 832.843 252.32C832.783 252.32 832.723 252.32 832.663 252.32C832.603 252.32 832.543 252.32 832.483 252.32C832.422 252.32 832.362 252.32 832.301 252.32C832.241 252.32 832.18 252.32 832.119 252.32C832.059 252.32 831.998 252.32 831.937 252.32C831.876 252.32 831.815 252.32 831.753 252.32C831.692 252.32 831.631 252.32 831.569 252.32C831.508 252.32 831.446 252.32 831.385 252.32C831.323 252.32 831.261 252.32 831.199 252.32C831.137 252.32 831.075 252.32 831.013 252.32C830.951 252.32 830.889 252.32 830.826 252.32C830.764 252.32 830.701 252.32 830.639 252.32C830.576 252.32 830.514 252.32 830.451 252.32C830.388 252.32 830.325 252.32 830.262 252.32C830.199 252.32 830.136 252.32 830.073 252.32C830.009 252.32 829.946 252.32 829.883 252.32C829.819 252.32 829.756 252.32 829.692 252.32C829.628 252.32 829.564 252.32 829.501 252.32C829.437 252.32 829.373 252.32 829.309 252.32C829.244 252.32 829.18 252.32 829.116 252.32C829.052 252.32 828.987 252.32 828.923 252.32C828.858 252.32 828.794 252.32 828.729 252.32C828.664 252.32 828.599 252.32 828.534 252.32C828.469 252.32 828.404 252.32 828.339 252.32C828.274 252.32 828.209 252.32 828.144 252.32C828.078 252.32 828.013 252.32 827.947 252.32C827.882 252.32 827.816 252.32 827.75 252.32C827.685 252.32 827.619 252.32 827.553 252.32C827.487 252.32 827.421 252.32 827.355 252.32C827.289 252.32 827.223 252.32 827.156 252.32C827.09 252.32 827.024 252.32 826.957 252.32C826.891 252.32 826.824 252.32 826.757 252.32C826.691 252.32 826.624 252.32 826.557 252.32C826.49 252.32 826.423 252.32 826.356 252.32C826.289 252.32 826.222 252.32 826.155 252.32C826.087 252.32 826.02 252.32 825.953 252.32C825.885 252.32 825.818 252.32 825.75 252.32C825.682 252.32 825.615 252.32 825.547 252.32C825.479 252.32 825.411 252.32 825.343 252.32C825.275 252.32 825.207 252.32 825.139 252.32C825.071 252.32 825.003 252.32 824.934 252.32C824.866 252.32 824.798 252.32 824.729 252.32C824.661 252.32 824.592 252.32 824.523 252.32C824.455 252.32 824.386 252.32 824.317 252.32C824.248 252.32 824.179 252.32 824.11 252.32C824.041 252.32 823.972 252.32 823.903 252.32C823.834 252.32 823.765 252.32 823.695 252.32C823.626 252.32 823.556 252.32 823.487 252.32C823.417 252.32 823.348 252.32 823.278 252.32C823.208 252.32 823.139 252.32 823.069 252.32C822.999 252.32 822.929 252.32 822.859 252.32C822.789 252.32 822.719 252.32 822.649 252.32C822.579 252.32 822.509 252.32 822.438 252.32C822.368 252.32 822.298 252.32 822.227 252.32C822.157 252.32 822.086 252.32 822.016 252.32C821.945 252.32 821.874 252.32 821.803 252.32C821.733 252.32 821.662 252.32 821.591 252.32C821.52 252.32 821.449 252.32 821.378 252.32C821.307 252.32 821.236 252.32 821.165 252.32C821.093 252.32 821.022 252.32 820.951 252.32C820.879 252.32 820.808 252.32 820.737 252.32C820.665 252.32 820.594 252.32 820.522 252.32C820.45 252.32 820.379 252.32 820.307 252.32C820.235 252.32 820.163 252.32 820.091 252.32C820.019 252.32 819.947 252.32 819.875 252.32C819.803 252.32 819.731 252.32 819.659 252.32C819.587 252.32 819.515 252.32 819.442 252.32C819.37 252.32 819.298 252.32 819.225 252.32C819.153 252.32 819.08 252.32 819.008 252.32C818.935 252.32 818.862 252.32 818.79 252.32C818.717 252.32 818.644 252.32 818.571 252.32C818.499 252.32 818.426 252.32 818.353 252.32C818.28 252.32 818.207 252.32 818.134 252.32C818.061 252.32 817.988 252.32 817.914 252.32C817.841 252.32 817.768 252.32 817.695 252.32C817.621 252.32 817.548 252.32 817.474 252.32C817.401 252.32 817.328 252.32 817.254 252.32C817.18 252.32 817.107 252.32 817.033 252.32C816.959 252.32 816.886 252.32 816.812 252.32C816.738 252.32 816.664 252.32 816.59 252.32C816.517 252.32 816.443 252.32 816.369 252.32C816.295 252.32 816.221 252.32 816.146 252.32C816.072 252.32 815.998 252.32 815.924 252.32C815.85 252.32 815.775 252.32 815.701 252.32C815.627 252.32 815.552 252.32 815.478 252.32C815.404 252.32 815.329 252.32 815.255 252.32C815.18 252.32 815.105 252.32 815.031 252.32C814.956 252.32 814.882 252.32 814.807 252.32C814.732 252.32 814.657 252.32 814.582 252.32C814.508 252.32 814.433 252.32 814.358 252.32C814.283 252.32 814.208 252.32 814.133 252.32C814.058 252.32 813.983 252.32 813.908 252.32C813.833 252.32 813.757 252.32 813.682 252.32C813.607 252.32 813.532 252.32 813.457 252.32C813.381 252.32 813.306 252.32 813.231 252.32C813.155 252.32 813.08 252.32 813.004 252.32C812.929 252.32 812.853 252.32 812.778 252.32C812.702 252.32 812.627 252.32 812.551 252.32C812.475 252.32 812.4 252.32 812.324 252.32C812.248 252.32 812.173 252.32 812.097 252.32C812.021 252.32 811.945 252.32 811.869 252.32C811.793 252.32 811.717 252.32 811.642 252.32C811.566 252.32 811.49 252.32 811.414 252.32C811.338 252.32 811.262 252.32 811.185 252.32C811.109 252.32 811.033 252.32 810.957 252.32C810.881 252.32 810.805 252.32 810.728 252.32C810.652 252.32 810.576 252.32 810.5 252.32C810.423 252.32 810.347 252.32 810.271 252.32C810.194 252.32 810.118 252.32 810.041 252.32C809.965 252.32 809.889 252.32 809.812 252.32C809.736 252.32 809.659 252.32 809.583 252.32C809.506 252.32 809.429 252.32 809.353 252.32C809.276 252.32 809.199 252.32 809.123 252.32C809.046 252.32 808.969 252.32 808.893 252.32C808.816 252.32 808.739 252.32 808.662 252.32C808.586 252.32 808.509 252.32 808.432 252.32C808.355 252.32 808.278 252.32 808.201 252.32C808.125 252.32 808.048 252.32 807.971 252.32C807.894 252.32 807.817 252.32 807.74 252.32C807.663 252.32 807.586 252.32 807.509 252.32C807.432 252.32 807.355 252.32 807.278 252.32C807.2 252.32 807.123 252.32 807.046 252.32C806.969 252.32 806.892 252.32 806.815 252.32C806.738 252.32 806.66 252.32 806.583 252.32C806.506 252.32 806.429 252.32 806.352 252.32C806.274 252.32 806.197 252.32 806.12 252.32C806.042 252.32 805.965 252.32 805.888 252.32C805.81 252.32 805.733 252.32 805.656 252.32C805.578 252.32 805.501 252.32 805.424 252.32C805.346 252.32 805.269 252.32 805.191 252.32C805.114 252.32 805.037 252.32 804.959 252.32C804.882 252.32 804.804 252.32 804.727 252.32C804.649 252.32 804.572 252.32 804.494 252.32C804.417 252.32 804.339 252.32 804.262 252.32C804.184 252.32 804.107 252.32 804.029 252.32C803.952 252.32 803.874 252.32 803.796 252.32C803.719 252.32 803.641 252.32 803.564 252.32C803.486 252.32 803.409 252.32 803.331 252.32C803.253 252.32 803.176 252.32 803.098 252.32C803.02 252.32 802.943 252.32 802.865 252.32C802.788 252.32 802.71 252.32 802.632 252.32C802.555 252.32 802.477 252.32 802.399 252.32C802.322 252.32 802.244 252.32 802.166 252.32C802.089 252.32 802.011 252.32 801.933 252.32C801.856 252.32 801.778 252.32 801.7 252.32C801.622 252.32 801.545 252.32 801.467 252.32C801.389 252.32 801.312 252.32 801.234 252.32C801.156 252.32 801.079 252.32 801.001 252.32C800.923 252.32 800.846 252.32 800.768 252.32C800.69 252.32 800.612 252.32 800.535 252.32C800.457 252.32 800.379 252.32 800.302 252.32C800.224 252.32 800.146 252.32 800.069 252.32C799.991 252.32 799.913 252.32 799.836 252.32C799.758 252.32 799.68 252.32 799.603 252.32C799.525 252.32 799.447 252.32 799.37 252.32C799.292 252.32 799.214 252.32 799.137 252.32C799.059 252.32 798.981 252.32 798.904 252.32C798.826 252.32 798.748 252.32 798.671 252.32C798.593 252.32 798.516 252.32 798.438 252.32C798.36 252.32 798.283 252.32 798.205 252.32C798.128 252.32 798.05 252.32 797.972 252.32C797.895 252.32 797.817 252.32 797.74 252.32C797.662 252.32 797.585 252.32 797.507 252.32C797.43 252.32 797.352 252.32 797.275 252.32C797.197 252.32 797.12 252.32 797.042 252.32C796.965 252.32 796.887 252.32 796.81 252.32C796.732 252.32 796.655 252.32 796.577 252.32C796.5 252.32 796.423 252.32 796.345 252.32C796.268 252.32 796.19 252.32 796.113 252.32C796.036 252.32 795.958 252.32 795.881 252.32C795.804 252.32 795.726 252.32 795.649 252.32C795.572 252.32 795.495 252.32 795.417 252.32C795.34 252.32 795.263 252.32 795.186 252.32C795.108 252.32 795.031 252.32 794.954 252.32C794.877 252.32 794.8 252.32 794.723 252.32C794.646 252.32 794.568 252.32 794.491 252.32C794.414 252.32 794.337 252.32 794.26 252.32C794.183 252.32 794.106 252.32 794.029 252.32C793.952 252.32 793.875 252.32 793.798 252.32C793.721 252.32 793.644 252.32 793.568 252.32C793.491 252.32 793.414 252.32 793.337 252.32C793.26 252.32 793.183 252.32 793.106 252.32C793.03 252.32 792.953 252.32 792.876 252.32C792.799 252.32 792.723 252.32 792.646 252.32C792.569 252.32 792.493 252.32 792.416 252.32C792.34 252.32 792.263 252.32 792.186 252.32C792.11 252.32 792.033 252.32 791.957 252.32C791.88 252.32 791.804 252.32 791.727 252.32C791.651 252.32 791.575 252.32 791.498 252.32C791.422 252.32 791.346 252.32 791.269 252.32C791.193 252.32 791.117 252.32 791.04 252.32C790.964 252.32 790.888 252.32 790.812 252.32C790.736 252.32 790.66 252.32 790.583 252.32C790.507 252.32 790.431 252.32 790.355 252.32C790.279 252.32 790.203 252.32 790.127 252.32C790.051 252.32 789.976 252.32 789.9 252.32C789.824 252.32 789.748 252.32 789.672 252.32C789.596 252.32 789.521 252.32 789.445 252.32C789.369 252.32 789.294 252.32 789.218 252.32C789.142 252.32 789.067 252.32 788.991 252.32C788.916 252.32 788.84 252.32 788.765 252.32C788.689 252.32 788.614 252.32 788.538 252.32C788.463 252.32 788.388 252.32 788.312 252.32C788.237 252.32 788.162 252.32 788.087 252.32C788.012 252.32 787.936 252.32 787.861 252.32C787.786 252.32 787.711 252.32 787.636 252.32C787.561 252.32 787.486 252.32 787.411 252.32C787.336 252.32 787.261 252.32 787.187 252.32C787.112 252.32 787.037 252.32 786.962 252.32C786.888 252.32 786.813 252.32 786.738 252.32C786.664 252.32 786.589 252.32 786.515 252.32C786.44 252.32 786.366 252.32 786.291 252.32C786.217 252.32 786.142 252.32 786.068 252.32C785.994 252.32 785.919 252.32 785.845 252.32C785.771 252.32 785.697 252.32 785.623 252.32C785.549 252.32 785.475 252.32 785.401 252.32C785.327 252.32 785.253 252.32 785.179 252.32C785.105 252.32 785.031 252.32 784.957 252.32C784.883 252.32 784.81 252.32 784.736 252.32C784.662 252.32 784.589 252.32 784.515 252.32C784.442 252.32 784.368 252.32 784.295 252.32C784.221 252.32 784.148 252.32 784.075 252.32C784.001 252.32 783.928 252.32 783.855 252.32C783.782 252.32 783.709 252.32 783.635 252.32C783.562 252.32 783.489 252.32 783.416 252.32C783.344 252.32 783.271 252.32 783.198 252.32C783.125 252.32 783.052 252.32 782.979 252.32C782.907 252.32 782.834 252.32 782.762 252.32C782.689 252.32 782.617 252.32 782.544 252.32C782.472 252.32 782.399 252.32 782.327 252.32C782.255 252.32 782.182 252.32 782.11 252.32C782.038 252.32 781.966 252.32 781.894 252.32C781.822 252.32 781.75 252.32 781.678 252.32C781.606 252.32 781.534 252.32 781.463 252.32C781.391 252.32 781.319 252.32 781.247 252.32C781.176 252.32 781.104 252.32 781.033 252.32C780.961 252.32 780.89 252.32 780.819 252.32C780.747 252.32 780.676 252.32 780.605 252.32C780.534 252.32 780.462 252.32 780.391 252.32C780.32 252.32 780.249 252.32 780.178 252.32C780.107 252.32 780.037 252.32 779.966 252.32C779.895 252.32 779.824 252.32 779.754 252.32C779.683 252.32 779.613 252.32 779.542 252.32C779.472 252.32 779.401 252.32 779.331 252.32C779.261 252.32 779.191 252.32 779.121 252.32C779.05 252.32 778.98 252.32 778.91 252.32C778.84 252.32 778.77 252.32 778.701 252.32C778.631 252.32 778.561 252.32 778.491 252.32C778.422 252.32 778.352 252.32 778.283 252.32C778.213 252.32 778.144 252.32 778.074 252.32C778.005 252.32 777.936 252.32 777.867 252.32C777.797 252.32 777.728 252.32 777.659 252.32C777.59 252.32 777.521 252.32 777.453 252.32C777.384 252.32 777.315 252.32 777.246 252.32C777.178 252.32 777.109 252.32 777.041 252.32C776.972 252.32 776.904 252.32 776.835 252.32C776.767 252.32 776.699 252.32 776.631 252.32C776.562 252.32 776.494 252.32 776.426 252.32C776.359 252.32 776.291 252.32 776.223 252.32C776.155 252.32 776.087 252.32 776.02 252.32C775.952 252.32 775.885 252.32 775.817 252.32C775.75 252.32 775.682 252.32 775.615 252.32C775.548 252.32 775.481 252.32 775.414 252.32C775.347 252.32 775.28 252.32 775.213 252.32C775.146 252.32 775.079 252.32 775.012 252.32C774.946 252.32 774.879 252.32 774.813 252.32C774.746 252.32 774.68 252.32 774.613 252.32C774.547 252.32 774.481 252.32 774.415 252.32C774.349 252.32 774.283 252.32 774.217 252.32C774.151 252.32 774.085 252.32 774.019 252.32C773.954 252.32 773.888 252.32 773.823 252.32C773.757 252.32 773.692 252.32 773.626 252.32C773.561 252.32 773.496 252.32 773.431 252.32C773.365 252.32 773.3 252.32 773.235 252.32C773.171 252.32 773.106 252.32 773.041 252.32C772.976 252.32 772.912 252.32 772.847 252.32C772.783 252.32 772.718 252.32 772.654 252.32C772.59 252.32 772.526 252.32 772.461 252.32C772.397 252.32 772.333 252.32 772.269 252.32C772.206 252.32 772.142 252.32 772.078 252.32C772.014 252.32 771.951 252.32 771.887 252.32C771.824 252.32 771.761 252.32 771.697 252.32C771.634 252.32 771.571 252.32 771.508 252.32C771.445 252.32 771.382 252.32 771.319 252.32C771.256 252.32 771.194 252.32 771.131 252.32C771.069 252.32 771.006 252.32 770.944 252.32C770.881 252.32 770.819 252.32 770.757 252.32C770.695 252.32 770.633 252.32 770.571 252.32C770.509 252.32 770.447 252.32 770.386 252.32C770.324 252.32 770.262 252.32 770.201 252.32C770.139 252.32 770.078 252.32 770.017 252.32C769.956 252.32 769.895 252.32 769.833 252.32C769.773 252.32 769.712 252.32 769.651 252.32C769.59 252.32 769.529 252.32 769.469 252.32C769.408 252.32 769.348 252.32 769.288 252.32C769.227 252.32 769.167 252.32 769.107 252.32C769.047 252.32 768.987 252.32 768.927 252.32C768.868 252.32 768.808 252.32 768.748 252.32C768.689 252.32 768.629 252.32 768.57 252.32C768.511 252.32 768.452 252.32 768.392 252.32C768.333 252.32 768.274 252.32 768.216 252.32C768.157 252.32 768.098 252.32 768.039 252.32C767.981 252.32 767.922 252.32 767.864 252.32C767.806 252.32 767.748 252.32 767.69 252.32C767.631 252.32 767.573 252.32 767.516 252.32C767.458 252.32 767.4 252.32 767.343 252.32C767.285 252.32 767.227 252.32 767.17 252.32C767.113 252.32 767.056 252.32 766.999 252.32C766.942 252.32 766.885 252.32 766.828 252.32C766.771 252.32 766.714 252.32 766.658 252.32C766.601 252.32 766.545 252.32 766.489 252.32C766.432 252.32 766.376 252.32 766.32 252.32C766.264 252.32 766.208 252.32 766.153 252.32C766.097 252.32 766.041 252.32 765.986 252.32C765.93 252.32 765.875 252.32 765.82 252.32C765.764 252.32 765.709 252.32 765.654 252.32C765.599 252.32 765.545 252.32 765.49 252.32C765.435 252.32 765.381 252.32 765.326 252.32C765.272 252.32 765.218 252.32 765.164 252.32C765.11 252.32 765.056 252.32 765.002 252.32C764.948 252.32 764.894 252.32 764.841 252.32C764.787 252.32 764.734 252.32 764.68 252.32C764.627 252.32 764.574 252.32 764.521 252.32C764.468 252.32 764.415 252.32 764.362 252.32C764.31 252.32 764.257 252.32 764.205 252.32C764.152 252.32 764.1 252.32 764.048 252.32C763.996 252.32 763.944 252.32 763.892 252.32C763.84 252.32 763.788 252.32 763.737 252.32C763.685 252.32 763.634 252.32 763.583 252.32C763.531 252.32 763.48 252.32 763.429 252.32C763.378 252.32 763.327 252.32 763.277 252.32C763.226 252.32 763.175 252.32 763.125 252.32C763.075 252.32 763.024 252.32 762.974 252.32C762.924 252.32 762.874 252.32 762.825 252.32C762.775 252.32 762.725 252.32 762.676 252.32C762.626 252.32 762.577 252.32 762.528 252.32C762.479 252.32 762.43 252.32 762.381 252.32C762.332 252.32 762.283 252.32 762.234 252.32C762.186 252.32 762.137 252.32 762.089 252.32C762.041 252.32 761.993 252.32 761.945 252.32C761.897 252.32 761.849 252.32 761.802 252.32C761.754 252.32 761.706 252.32 761.659 252.32C761.612 252.32 761.565 252.32 761.518 252.32C761.471 252.32 761.424 252.32 761.377 252.32C761.33 252.32 761.284 252.32 761.237 252.32C761.191 252.32 761.145 252.32 761.099 252.32C761.053 252.32 761.007 252.32 760.961 252.32C760.915 252.32 760.87 252.32 760.824 252.32C760.779 252.32 760.734 252.32 760.689 252.32C760.643 252.32 760.599 252.32 760.554 252.32C760.509 252.32 760.464 252.32 760.42 252.32C760.376 252.32 760.331 252.32 760.287 252.32C760.243 252.32 760.199 252.32 760.155 252.32C760.112 252.32 760.068 252.32 760.025 252.32C759.981 252.32 759.938 252.32 759.895 252.32C759.852 252.32 759.809 252.32 759.766 252.32C759.723 252.32 759.681 252.32 759.638 252.32C759.596 252.32 759.553 252.32 759.511 252.32C759.469 252.32 759.427 252.32 759.386 252.32C759.344 252.32 759.302 252.32 759.261 252.32C759.219 252.32 759.178 252.32 759.137 252.32C759.096 252.32 759.055 252.32 759.014 252.32C758.974 252.32 758.933 252.32 758.893 252.32C758.852 252.32 758.812 252.32 758.772 252.32C758.732 252.32 758.692 252.32 758.653 252.32C758.613 252.32 758.573 252.32 758.534 252.32C758.495 252.32 758.456 252.32 758.417 252.32C758.378 252.32 758.339 252.32 758.3 252.32C758.262 252.32 758.223 252.32 758.185 252.32C758.147 252.32 758.109 252.32 758.071 252.32C758.033 252.32 757.995 252.32 757.958 252.32C757.92 252.32 757.883 252.32 757.846 252.32C757.808 252.32 757.771 252.32 757.734 252.32C757.698 252.32 757.661 252.32 757.625 252.32C757.588 252.32 757.552 252.32 757.516 252.32C757.48 252.32 757.444 252.32 757.408 252.32C757.372 252.32 757.337 252.32 757.302 252.32C757.266 252.32 757.231 252.32 757.196 252.32C757.161 252.32 757.126 252.32 757.092 252.32C757.057 252.32 757.023 252.32 756.988 252.32C756.954 252.32 756.92 252.32 756.886 252.32C756.852 252.32 756.819 252.32 756.785 252.32C756.752 252.32 756.719 252.32 756.685 252.32C756.652 252.32 756.62 252.32 756.587 252.32C756.554 252.32 756.522 252.32 756.489 252.32C756.457 252.32 756.425 252.32 756.393 252.32C756.361 252.32 756.329 252.32 756.298 252.32C756.266 252.32 756.235 252.32 756.203 252.32C756.172 252.32 756.141 252.32 756.111 252.32C756.08 252.32 756.049 252.32 756.019 252.32C755.988 252.32 755.958 252.32 755.928 252.32C755.898 252.32 755.868 252.32 755.839 252.32C755.809 252.32 755.78 252.32 755.751 252.32C755.721 252.32 755.692 252.32 755.664 252.32C755.635 252.32 755.606 252.32 755.578 252.32C755.549 252.32 755.521 252.32 755.493 252.32C755.465 252.32 755.437 252.32 755.41 252.32C755.382 252.32 755.355 252.32 755.328 252.32C755.3 252.32 755.273 252.32 755.247 252.32C755.22 252.32 755.193 252.32 755.167 252.32C755.14 252.32 755.114 252.32 755.088 252.32C755.062 252.32 755.036 252.32 755.011 252.32C754.985 252.32 754.96 252.32 754.935 252.32C754.91 252.32 754.885 252.32 754.86 252.32C754.835 252.32 754.811 252.32 754.786 252.32C754.762 252.32 754.738 252.32 754.714 252.32C754.69 252.32 754.666 252.32 754.643 252.32C754.619 252.32 754.596 252.32 754.573 252.32C754.55 252.32 754.527 252.32 754.504 252.32C754.482 252.32 754.459 252.32 754.437 252.32C754.415 252.32 754.393 252.32 754.371 252.32C754.349 252.32 754.328 252.32 754.306 252.32C754.285 252.32 754.264 252.32 754.243 252.32C754.222 252.32 754.201 252.32 754.18 252.32C754.16 252.32 754.14 252.32 754.12 252.32C754.099 252.32 754.08 252.32 754.06 252.32C754.04 252.32 754.021 252.32 754.002 252.32C753.982 252.32 753.963 252.32 753.945 252.32C753.926 252.32 753.907 252.32 753.889 252.32C753.871 252.32 753.852 252.32 753.835 252.32C753.817 252.32 753.799 252.32 753.781 252.32C753.764 252.32 753.747 252.32 753.73 252.32C753.713 252.32 753.696 252.32 753.679 252.32C753.663 252.32 753.646 252.32 753.63 252.32C753.614 252.32 753.598 252.32 753.583 252.32C753.567 252.32 753.551 252.32 753.536 252.32C753.521 252.32 753.506 252.32 753.491 252.32C753.476 252.32 753.462 252.32 753.447 252.32C753.433 252.32 753.419 252.32 753.405 252.32C753.391 252.32 753.378 252.32 753.364 252.32C753.351 252.32 753.338 252.32 753.325 252.32C753.312 252.32 753.299 252.32 753.286 252.32C753.274 252.32 753.262 252.32 753.25 252.32C753.238 252.32 753.226 252.32 753.214 252.32C753.203 252.32 753.191 252.32 753.18 252.32C753.169 252.32 753.158 252.32 753.147 252.32C753.137 252.32 753.126 252.32 753.116 252.32C753.106 252.32 753.096 252.32 753.086 252.32C753.077 252.32 753.067 252.32 753.058 252.32C753.049 252.32 753.04 252.32 753.031 252.32C753.022 252.32 753.014 252.32 753.005 252.32C752.997 252.32 752.989 252.32 752.981 252.32C752.973 252.32 752.966 252.32 752.958 252.32C752.951 252.32 752.944 252.32 752.937 252.32C752.93 252.32 752.923 252.32 752.917 252.32C752.911 252.32 752.905 252.32 752.899 252.32C752.893 252.32 752.887 252.32 752.882 252.32C752.876 252.32 752.871 252.32 752.866 252.32C752.861 252.32 752.856 252.32 752.852 252.32C752.848 252.32 752.843 252.32 752.839 252.32C752.835 252.32 752.832 252.32 752.828 252.32C752.825 252.32 752.822 252.32 752.819 252.32C752.816 252.32 752.813 252.32 752.81 252.32C752.808 252.32 752.806 252.32 752.804 252.32C752.802 252.32 752.8 252.32 752.798 252.32C752.797 252.32 752.796 252.32 752.795 252.32C752.794 252.32 752.793 252.32 752.792 252.32C752.792 252.32 752.792 252.32 752.792 254.32C752.792 256.32 752.792 256.32 752.792 256.32C752.793 256.32 752.794 256.32 752.795 256.32C752.796 256.32 752.797 256.32 752.798 256.32C752.8 256.32 752.802 256.32 752.804 256.32C752.806 256.32 752.808 256.32 752.81 256.32C752.813 256.32 752.816 256.32 752.819 256.32C752.822 256.32 752.825 256.32 752.828 256.32C752.832 256.32 752.835 256.32 752.839 256.32C752.843 256.32 752.848 256.32 752.852 256.32C752.856 256.32 752.861 256.32 752.866 256.32C752.871 256.32 752.876 256.32 752.882 256.32C752.887 256.32 752.893 256.32 752.899 256.32C752.905 256.32 752.911 256.32 752.917 256.32C752.923 256.32 752.93 256.32 752.937 256.32C752.944 256.32 752.951 256.32 752.958 256.32C752.966 256.32 752.973 256.32 752.981 256.32C752.989 256.32 752.997 256.32 753.005 256.32C753.014 256.32 753.022 256.32 753.031 256.32C753.04 256.32 753.049 256.32 753.058 256.32C753.067 256.32 753.077 256.32 753.086 256.32C753.096 256.32 753.106 256.32 753.116 256.32C753.126 256.32 753.137 256.32 753.147 256.32C753.158 256.32 753.169 256.32 753.18 256.32C753.191 256.32 753.203 256.32 753.214 256.32C753.226 256.32 753.238 256.32 753.25 256.32C753.262 256.32 753.274 256.32 753.286 256.32C753.299 256.32 753.312 256.32 753.325 256.32C753.338 256.32 753.351 256.32 753.364 256.32C753.378 256.32 753.391 256.32 753.405 256.32C753.419 256.32 753.433 256.32 753.447 256.32C753.462 256.32 753.476 256.32 753.491 256.32C753.506 256.32 753.521 256.32 753.536 256.32C753.551 256.32 753.567 256.32 753.583 256.32C753.598 256.32 753.614 256.32 753.63 256.32C753.646 256.32 753.663 256.32 753.679 256.32C753.696 256.32 753.713 256.32 753.73 256.32C753.747 256.32 753.764 256.32 753.781 256.32C753.799 256.32 753.817 256.32 753.835 256.32C753.852 256.32 753.871 256.32 753.889 256.32C753.907 256.32 753.926 256.32 753.945 256.32C753.963 256.32 753.982 256.32 754.002 256.32C754.021 256.32 754.04 256.32 754.06 256.32C754.08 256.32 754.099 256.32 754.12 256.32C754.14 256.32 754.16 256.32 754.18 256.32C754.201 256.32 754.222 256.32 754.243 256.32C754.264 256.32 754.285 256.32 754.306 256.32C754.328 256.32 754.349 256.32 754.371 256.32C754.393 256.32 754.415 256.32 754.437 256.32C754.459 256.32 754.482 256.32 754.504 256.32C754.527 256.32 754.55 256.32 754.573 256.32C754.596 256.32 754.619 256.32 754.643 256.32C754.666 256.32 754.69 256.32 754.714 256.32C754.738 256.32 754.762 256.32 754.786 256.32C754.811 256.32 754.835 256.32 754.86 256.32C754.885 256.32 754.91 256.32 754.935 256.32C754.96 256.32 754.985 256.32 755.011 256.32C755.036 256.32 755.062 256.32 755.088 256.32C755.114 256.32 755.14 256.32 755.167 256.32C755.193 256.32 755.22 256.32 755.247 256.32C755.273 256.32 755.3 256.32 755.328 256.32C755.355 256.32 755.382 256.32 755.41 256.32C755.437 256.32 755.465 256.32 755.493 256.32C755.521 256.32 755.549 256.32 755.578 256.32C755.606 256.32 755.635 256.32 755.664 256.32C755.692 256.32 755.721 256.32 755.751 256.32C755.78 256.32 755.809 256.32 755.839 256.32C755.868 256.32 755.898 256.32 755.928 256.32C755.958 256.32 755.988 256.32 756.019 256.32C756.049 256.32 756.08 256.32 756.111 256.32C756.141 256.32 756.172 256.32 756.203 256.32C756.235 256.32 756.266 256.32 756.298 256.32C756.329 256.32 756.361 256.32 756.393 256.32C756.425 256.32 756.457 256.32 756.489 256.32C756.522 256.32 756.554 256.32 756.587 256.32C756.62 256.32 756.652 256.32 756.685 256.32C756.719 256.32 756.752 256.32 756.785 256.32C756.819 256.32 756.852 256.32 756.886 256.32C756.92 256.32 756.954 256.32 756.988 256.32C757.023 256.32 757.057 256.32 757.092 256.32C757.126 256.32 757.161 256.32 757.196 256.32C757.231 256.32 757.266 256.32 757.302 256.32C757.337 256.32 757.372 256.32 757.408 256.32C757.444 256.32 757.48 256.32 757.516 256.32C757.552 256.32 757.588 256.32 757.625 256.32C757.661 256.32 757.698 256.32 757.734 256.32C757.771 256.32 757.808 256.32 757.846 256.32C757.883 256.32 757.92 256.32 757.958 256.32C757.995 256.32 758.033 256.32 758.071 256.32C758.109 256.32 758.147 256.32 758.185 256.32C758.223 256.32 758.262 256.32 758.3 256.32C758.339 256.32 758.378 256.32 758.417 256.32C758.456 256.32 758.495 256.32 758.534 256.32C758.573 256.32 758.613 256.32 758.653 256.32C758.692 256.32 758.732 256.32 758.772 256.32C758.812 256.32 758.852 256.32 758.893 256.32C758.933 256.32 758.974 256.32 759.014 256.32C759.055 256.32 759.096 256.32 759.137 256.32C759.178 256.32 759.219 256.32 759.261 256.32C759.302 256.32 759.344 256.32 759.386 256.32C759.427 256.32 759.469 256.32 759.511 256.32C759.553 256.32 759.596 256.32 759.638 256.32C759.681 256.32 759.723 256.32 759.766 256.32C759.809 256.32 759.852 256.32 759.895 256.32C759.938 256.32 759.981 256.32 760.025 256.32C760.068 256.32 760.112 256.32 760.155 256.32C760.199 256.32 760.243 256.32 760.287 256.32C760.331 256.32 760.376 256.32 760.42 256.32C760.464 256.32 760.509 256.32 760.554 256.32C760.599 256.32 760.643 256.32 760.689 256.32C760.734 256.32 760.779 256.32 760.824 256.32C760.87 256.32 760.915 256.32 760.961 256.32C761.007 256.32 761.053 256.32 761.099 256.32C761.145 256.32 761.191 256.32 761.237 256.32C761.284 256.32 761.33 256.32 761.377 256.32C761.424 256.32 761.471 256.32 761.518 256.32C761.565 256.32 761.612 256.32 761.659 256.32C761.706 256.32 761.754 256.32 761.802 256.32C761.849 256.32 761.897 256.32 761.945 256.32C761.993 256.32 762.041 256.32 762.089 256.32C762.137 256.32 762.186 256.32 762.234 256.32C762.283 256.32 762.332 256.32 762.381 256.32C762.43 256.32 762.479 256.32 762.528 256.32C762.577 256.32 762.626 256.32 762.676 256.32C762.725 256.32 762.775 256.32 762.825 256.32C762.874 256.32 762.924 256.32 762.974 256.32C763.024 256.32 763.075 256.32 763.125 256.32C763.175 256.32 763.226 256.32 763.277 256.32C763.327 256.32 763.378 256.32 763.429 256.32C763.48 256.32 763.531 256.32 763.583 256.32C763.634 256.32 763.685 256.32 763.737 256.32C763.788 256.32 763.84 256.32 763.892 256.32C763.944 256.32 763.996 256.32 764.048 256.32C764.1 256.32 764.152 256.32 764.205 256.32C764.257 256.32 764.31 256.32 764.362 256.32C764.415 256.32 764.468 256.32 764.521 256.32C764.574 256.32 764.627 256.32 764.68 256.32C764.734 256.32 764.787 256.32 764.841 256.32C764.894 256.32 764.948 256.32 765.002 256.32C765.056 256.32 765.11 256.32 765.164 256.32C765.218 256.32 765.272 256.32 765.326 256.32C765.381 256.32 765.435 256.32 765.49 256.32C765.545 256.32 765.599 256.32 765.654 256.32C765.709 256.32 765.764 256.32 765.82 256.32C765.875 256.32 765.93 256.32 765.986 256.32C766.041 256.32 766.097 256.32 766.153 256.32C766.208 256.32 766.264 256.32 766.32 256.32C766.376 256.32 766.432 256.32 766.489 256.32C766.545 256.32 766.601 256.32 766.658 256.32C766.714 256.32 766.771 256.32 766.828 256.32C766.885 256.32 766.942 256.32 766.999 256.32C767.056 256.32 767.113 256.32 767.17 256.32C767.227 256.32 767.285 256.32 767.343 256.32C767.4 256.32 767.458 256.32 767.516 256.32C767.573 256.32 767.631 256.32 767.69 256.32C767.748 256.32 767.806 256.32 767.864 256.32C767.922 256.32 767.981 256.32 768.039 256.32C768.098 256.32 768.157 256.32 768.216 256.32C768.274 256.32 768.333 256.32 768.392 256.32C768.452 256.32 768.511 256.32 768.57 256.32C768.629 256.32 768.689 256.32 768.748 256.32C768.808 256.32 768.868 256.32 768.927 256.32C768.987 256.32 769.047 256.32 769.107 256.32C769.167 256.32 769.227 256.32 769.288 256.32C769.348 256.32 769.408 256.32 769.469 256.32C769.529 256.32 769.59 256.32 769.651 256.32C769.712 256.32 769.773 256.32 769.833 256.32C769.895 256.32 769.956 256.32 770.017 256.32C770.078 256.32 770.139 256.32 770.201 256.32C770.262 256.32 770.324 256.32 770.386 256.32C770.447 256.32 770.509 256.32 770.571 256.32C770.633 256.32 770.695 256.32 770.757 256.32C770.819 256.32 770.881 256.32 770.944 256.32C771.006 256.32 771.069 256.32 771.131 256.32C771.194 256.32 771.256 256.32 771.319 256.32C771.382 256.32 771.445 256.32 771.508 256.32C771.571 256.32 771.634 256.32 771.697 256.32C771.761 256.32 771.824 256.32 771.887 256.32C771.951 256.32 772.014 256.32 772.078 256.32C772.142 256.32 772.206 256.32 772.269 256.32C772.333 256.32 772.397 256.32 772.461 256.32C772.526 256.32 772.59 256.32 772.654 256.32C772.718 256.32 772.783 256.32 772.847 256.32C772.912 256.32 772.976 256.32 773.041 256.32C773.106 256.32 773.171 256.32 773.235 256.32C773.3 256.32 773.365 256.32 773.431 256.32C773.496 256.32 773.561 256.32 773.626 256.32C773.692 256.32 773.757 256.32 773.823 256.32C773.888 256.32 773.954 256.32 774.019 256.32C774.085 256.32 774.151 256.32 774.217 256.32C774.283 256.32 774.349 256.32 774.415 256.32C774.481 256.32 774.547 256.32 774.613 256.32C774.68 256.32 774.746 256.32 774.813 256.32C774.879 256.32 774.946 256.32 775.012 256.32C775.079 256.32 775.146 256.32 775.213 256.32C775.28 256.32 775.347 256.32 775.414 256.32C775.481 256.32 775.548 256.32 775.615 256.32C775.682 256.32 775.75 256.32 775.817 256.32C775.885 256.32 775.952 256.32 776.02 256.32C776.087 256.32 776.155 256.32 776.223 256.32C776.291 256.32 776.359 256.32 776.426 256.32C776.494 256.32 776.562 256.32 776.631 256.32C776.699 256.32 776.767 256.32 776.835 256.32C776.904 256.32 776.972 256.32 777.041 256.32C777.109 256.32 777.178 256.32 777.246 256.32C777.315 256.32 777.384 256.32 777.453 256.32C777.521 256.32 777.59 256.32 777.659 256.32C777.728 256.32 777.797 256.32 777.867 256.32C777.936 256.32 778.005 256.32 778.074 256.32C778.144 256.32 778.213 256.32 778.283 256.32C778.352 256.32 778.422 256.32 778.491 256.32C778.561 256.32 778.631 256.32 778.701 256.32C778.77 256.32 778.84 256.32 778.91 256.32C778.98 256.32 779.05 256.32 779.121 256.32C779.191 256.32 779.261 256.32 779.331 256.32C779.401 256.32 779.472 256.32 779.542 256.32C779.613 256.32 779.683 256.32 779.754 256.32C779.824 256.32 779.895 256.32 779.966 256.32C780.037 256.32 780.107 256.32 780.178 256.32C780.249 256.32 780.32 256.32 780.391 256.32C780.462 256.32 780.534 256.32 780.605 256.32C780.676 256.32 780.747 256.32 780.819 256.32C780.89 256.32 780.961 256.32 781.033 256.32C781.104 256.32 781.176 256.32 781.247 256.32C781.319 256.32 781.391 256.32 781.463 256.32C781.534 256.32 781.606 256.32 781.678 256.32C781.75 256.32 781.822 256.32 781.894 256.32C781.966 256.32 782.038 256.32 782.11 256.32C782.182 256.32 782.255 256.32 782.327 256.32C782.399 256.32 782.472 256.32 782.544 256.32C782.617 256.32 782.689 256.32 782.762 256.32C782.834 256.32 782.907 256.32 782.979 256.32C783.052 256.32 783.125 256.32 783.198 256.32C783.271 256.32 783.344 256.32 783.416 256.32C783.489 256.32 783.562 256.32 783.635 256.32C783.709 256.32 783.782 256.32 783.855 256.32C783.928 256.32 784.001 256.32 784.075 256.32C784.148 256.32 784.221 256.32 784.295 256.32C784.368 256.32 784.442 256.32 784.515 256.32C784.589 256.32 784.662 256.32 784.736 256.32C784.81 256.32 784.883 256.32 784.957 256.32C785.031 256.32 785.105 256.32 785.179 256.32C785.253 256.32 785.327 256.32 785.401 256.32C785.475 256.32 785.549 256.32 785.623 256.32C785.697 256.32 785.771 256.32 785.845 256.32C785.919 256.32 785.994 256.32 786.068 256.32C786.142 256.32 786.217 256.32 786.291 256.32C786.366 256.32 786.44 256.32 786.515 256.32C786.589 256.32 786.664 256.32 786.738 256.32C786.813 256.32 786.888 256.32 786.962 256.32C787.037 256.32 787.112 256.32 787.187 256.32C787.261 256.32 787.336 256.32 787.411 256.32C787.486 256.32 787.561 256.32 787.636 256.32C787.711 256.32 787.786 256.32 787.861 256.32C787.936 256.32 788.012 256.32 788.087 256.32C788.162 256.32 788.237 256.32 788.312 256.32C788.388 256.32 788.463 256.32 788.538 256.32C788.614 256.32 788.689 256.32 788.765 256.32C788.84 256.32 788.916 256.32 788.991 256.32C789.067 256.32 789.142 256.32 789.218 256.32C789.294 256.32 789.369 256.32 789.445 256.32C789.521 256.32 789.596 256.32 789.672 256.32C789.748 256.32 789.824 256.32 789.9 256.32C789.976 256.32 790.051 256.32 790.127 256.32C790.203 256.32 790.279 256.32 790.355 256.32C790.431 256.32 790.507 256.32 790.583 256.32C790.66 256.32 790.736 256.32 790.812 256.32C790.888 256.32 790.964 256.32 791.04 256.32C791.117 256.32 791.193 256.32 791.269 256.32C791.346 256.32 791.422 256.32 791.498 256.32C791.575 256.32 791.651 256.32 791.727 256.32C791.804 256.32 791.88 256.32 791.957 256.32C792.033 256.32 792.11 256.32 792.186 256.32C792.263 256.32 792.34 256.32 792.416 256.32C792.493 256.32 792.569 256.32 792.646 256.32C792.723 256.32 792.799 256.32 792.876 256.32C792.953 256.32 793.03 256.32 793.106 256.32C793.183 256.32 793.26 256.32 793.337 256.32C793.414 256.32 793.491 256.32 793.568 256.32C793.644 256.32 793.721 256.32 793.798 256.32C793.875 256.32 793.952 256.32 794.029 256.32C794.106 256.32 794.183 256.32 794.26 256.32C794.337 256.32 794.414 256.32 794.491 256.32C794.568 256.32 794.646 256.32 794.723 256.32C794.8 256.32 794.877 256.32 794.954 256.32C795.031 256.32 795.108 256.32 795.186 256.32C795.263 256.32 795.34 256.32 795.417 256.32C795.495 256.32 795.572 256.32 795.649 256.32C795.726 256.32 795.804 256.32 795.881 256.32C795.958 256.32 796.036 256.32 796.113 256.32C796.19 256.32 796.268 256.32 796.345 256.32C796.423 256.32 796.5 256.32 796.577 256.32C796.655 256.32 796.732 256.32 796.81 256.32C796.887 256.32 796.965 256.32 797.042 256.32C797.12 256.32 797.197 256.32 797.275 256.32C797.352 256.32 797.43 256.32 797.507 256.32C797.585 256.32 797.662 256.32 797.74 256.32C797.817 256.32 797.895 256.32 797.972 256.32C798.05 256.32 798.128 256.32 798.205 256.32C798.283 256.32 798.36 256.32 798.438 256.32C798.516 256.32 798.593 256.32 798.671 256.32C798.748 256.32 798.826 256.32 798.904 256.32C798.981 256.32 799.059 256.32 799.137 256.32C799.214 256.32 799.292 256.32 799.37 256.32C799.447 256.32 799.525 256.32 799.603 256.32C799.68 256.32 799.758 256.32 799.836 256.32C799.913 256.32 799.991 256.32 800.069 256.32C800.146 256.32 800.224 256.32 800.302 256.32C800.379 256.32 800.457 256.32 800.535 256.32C800.612 256.32 800.69 256.32 800.768 256.32C800.846 256.32 800.923 256.32 801.001 256.32C801.079 256.32 801.156 256.32 801.234 256.32C801.312 256.32 801.389 256.32 801.467 256.32C801.545 256.32 801.622 256.32 801.7 256.32C801.778 256.32 801.856 256.32 801.933 256.32C802.011 256.32 802.089 256.32 802.166 256.32C802.244 256.32 802.322 256.32 802.399 256.32C802.477 256.32 802.555 256.32 802.632 256.32C802.71 256.32 802.788 256.32 802.865 256.32C802.943 256.32 803.02 256.32 803.098 256.32C803.176 256.32 803.253 256.32 803.331 256.32C803.409 256.32 803.486 256.32 803.564 256.32C803.641 256.32 803.719 256.32 803.796 256.32C803.874 256.32 803.952 256.32 804.029 256.32C804.107 256.32 804.184 256.32 804.262 256.32C804.339 256.32 804.417 256.32 804.494 256.32C804.572 256.32 804.649 256.32 804.727 256.32C804.804 256.32 804.882 256.32 804.959 256.32C805.037 256.32 805.114 256.32 805.191 256.32C805.269 256.32 805.346 256.32 805.424 256.32C805.501 256.32 805.578 256.32 805.656 256.32C805.733 256.32 805.81 256.32 805.888 256.32C805.965 256.32 806.042 256.32 806.12 256.32C806.197 256.32 806.274 256.32 806.352 256.32C806.429 256.32 806.506 256.32 806.583 256.32C806.66 256.32 806.738 256.32 806.815 256.32C806.892 256.32 806.969 256.32 807.046 256.32C807.123 256.32 807.2 256.32 807.278 256.32C807.355 256.32 807.432 256.32 807.509 256.32C807.586 256.32 807.663 256.32 807.74 256.32C807.817 256.32 807.894 256.32 807.971 256.32C808.048 256.32 808.125 256.32 808.201 256.32C808.278 256.32 808.355 256.32 808.432 256.32C808.509 256.32 808.586 256.32 808.662 256.32C808.739 256.32 808.816 256.32 808.893 256.32C808.969 256.32 809.046 256.32 809.123 256.32C809.199 256.32 809.276 256.32 809.353 256.32C809.429 256.32 809.506 256.32 809.583 256.32C809.659 256.32 809.736 256.32 809.812 256.32C809.889 256.32 809.965 256.32 810.041 256.32C810.118 256.32 810.194 256.32 810.271 256.32C810.347 256.32 810.423 256.32 810.5 256.32C810.576 256.32 810.652 256.32 810.728 256.32C810.805 256.32 810.881 256.32 810.957 256.32C811.033 256.32 811.109 256.32 811.185 256.32C811.262 256.32 811.338 256.32 811.414 256.32C811.49 256.32 811.566 256.32 811.642 256.32C811.717 256.32 811.793 256.32 811.869 256.32C811.945 256.32 812.021 256.32 812.097 256.32C812.173 256.32 812.248 256.32 812.324 256.32C812.4 256.32 812.475 256.32 812.551 256.32C812.627 256.32 812.702 256.32 812.778 256.32C812.853 256.32 812.929 256.32 813.004 256.32C813.08 256.32 813.155 256.32 813.231 256.32C813.306 256.32 813.381 256.32 813.457 256.32C813.532 256.32 813.607 256.32 813.682 256.32C813.757 256.32 813.833 256.32 813.908 256.32C813.983 256.32 814.058 256.32 814.133 256.32C814.208 256.32 814.283 256.32 814.358 256.32C814.433 256.32 814.508 256.32 814.582 256.32C814.657 256.32 814.732 256.32 814.807 256.32C814.882 256.32 814.956 256.32 815.031 256.32C815.105 256.32 815.18 256.32 815.255 256.32C815.329 256.32 815.404 256.32 815.478 256.32C815.552 256.32 815.627 256.32 815.701 256.32C815.775 256.32 815.85 256.32 815.924 256.32C815.998 256.32 816.072 256.32 816.146 256.32C816.221 256.32 816.295 256.32 816.369 256.32C816.443 256.32 816.517 256.32 816.59 256.32C816.664 256.32 816.738 256.32 816.812 256.32C816.886 256.32 816.959 256.32 817.033 256.32C817.107 256.32 817.18 256.32 817.254 256.32C817.328 256.32 817.401 256.32 817.474 256.32C817.548 256.32 817.621 256.32 817.695 256.32C817.768 256.32 817.841 256.32 817.914 256.32C817.988 256.32 818.061 256.32 818.134 256.32C818.207 256.32 818.28 256.32 818.353 256.32C818.426 256.32 818.499 256.32 818.571 256.32C818.644 256.32 818.717 256.32 818.79 256.32C818.862 256.32 818.935 256.32 819.008 256.32C819.08 256.32 819.153 256.32 819.225 256.32C819.298 256.32 819.37 256.32 819.442 256.32C819.515 256.32 819.587 256.32 819.659 256.32C819.731 256.32 819.803 256.32 819.875 256.32C819.947 256.32 820.019 256.32 820.091 256.32C820.163 256.32 820.235 256.32 820.307 256.32C820.379 256.32 820.45 256.32 820.522 256.32C820.594 256.32 820.665 256.32 820.737 256.32C820.808 256.32 820.879 256.32 820.951 256.32C821.022 256.32 821.093 256.32 821.165 256.32C821.236 256.32 821.307 256.32 821.378 256.32C821.449 256.32 821.52 256.32 821.591 256.32C821.662 256.32 821.733 256.32 821.803 256.32C821.874 256.32 821.945 256.32 822.016 256.32C822.086 256.32 822.157 256.32 822.227 256.32C822.298 256.32 822.368 256.32 822.438 256.32C822.509 256.32 822.579 256.32 822.649 256.32C822.719 256.32 822.789 256.32 822.859 256.32C822.929 256.32 822.999 256.32 823.069 256.32C823.139 256.32 823.208 256.32 823.278 256.32C823.348 256.32 823.417 256.32 823.487 256.32C823.556 256.32 823.626 256.32 823.695 256.32C823.765 256.32 823.834 256.32 823.903 256.32C823.972 256.32 824.041 256.32 824.11 256.32C824.179 256.32 824.248 256.32 824.317 256.32C824.386 256.32 824.455 256.32 824.523 256.32C824.592 256.32 824.661 256.32 824.729 256.32C824.798 256.32 824.866 256.32 824.934 256.32C825.003 256.32 825.071 256.32 825.139 256.32C825.207 256.32 825.275 256.32 825.343 256.32C825.411 256.32 825.479 256.32 825.547 256.32C825.615 256.32 825.682 256.32 825.75 256.32C825.818 256.32 825.885 256.32 825.953 256.32C826.02 256.32 826.087 256.32 826.155 256.32C826.222 256.32 826.289 256.32 826.356 256.32C826.423 256.32 826.49 256.32 826.557 256.32C826.624 256.32 826.691 256.32 826.757 256.32C826.824 256.32 826.891 256.32 826.957 256.32C827.024 256.32 827.09 256.32 827.156 256.32C827.223 256.32 827.289 256.32 827.355 256.32C827.421 256.32 827.487 256.32 827.553 256.32C827.619 256.32 827.685 256.32 827.75 256.32C827.816 256.32 827.882 256.32 827.947 256.32C828.013 256.32 828.078 256.32 828.144 256.32C828.209 256.32 828.274 256.32 828.339 256.32C828.404 256.32 828.469 256.32 828.534 256.32C828.599 256.32 828.664 256.32 828.729 256.32C828.794 256.32 828.858 256.32 828.923 256.32C828.987 256.32 829.052 256.32 829.116 256.32C829.18 256.32 829.244 256.32 829.309 256.32C829.373 256.32 829.437 256.32 829.501 256.32C829.564 256.32 829.628 256.32 829.692 256.32C829.756 256.32 829.819 256.32 829.883 256.32C829.946 256.32 830.009 256.32 830.073 256.32C830.136 256.32 830.199 256.32 830.262 256.32C830.325 256.32 830.388 256.32 830.451 256.32C830.514 256.32 830.576 256.32 830.639 256.32C830.701 256.32 830.764 256.32 830.826 256.32C830.889 256.32 830.951 256.32 831.013 256.32C831.075 256.32 831.137 256.32 831.199 256.32C831.261 256.32 831.323 256.32 831.385 256.32C831.446 256.32 831.508 256.32 831.569 256.32C831.631 256.32 831.692 256.32 831.753 256.32C831.815 256.32 831.876 256.32 831.937 256.32C831.998 256.32 832.059 256.32 832.119 256.32C832.18 256.32 832.241 256.32 832.301 256.32C832.362 256.32 832.422 256.32 832.483 256.32C832.543 256.32 832.603 256.32 832.663 256.32C832.723 256.32 832.783 256.32 832.843 256.32C832.903 256.32 832.962 256.32 833.022 256.32C833.081 256.32 833.141 256.32 833.2 256.32C833.26 256.32 833.319 256.32 833.378 256.32C833.437 256.32 833.496 256.32 833.555 256.32C833.614 256.32 833.672 256.32 833.731 256.32C833.79 256.32 833.848 256.32 833.906 256.32C833.965 256.32 834.023 256.32 834.081 256.32C834.139 256.32 834.197 256.32 834.255 256.32C834.313 256.32 834.37 256.32 834.428 256.32C834.486 256.32 834.543 256.32 834.6 256.32C834.658 256.32 834.715 256.32 834.772 256.32C834.829 256.32 834.886 256.32 834.943 256.32C835 256.32 835.056 256.32 835.113 256.32C835.169 256.32 835.226 256.32 835.282 256.32C835.338 256.32 835.394 256.32 835.451 256.32C835.506 256.32 835.562 256.32 835.618 256.32C835.674 256.32 835.729 256.32 835.785 256.32C835.84 256.32 835.896 256.32 835.951 256.32C836.006 256.32 836.061 256.32 836.116 256.32C836.171 256.32 836.226 256.32 836.281 256.32C836.335 256.32 836.39 256.32 836.444 256.32C836.499 256.32 836.553 256.32 836.607 256.32C836.661 256.32 836.715 256.32 836.769 256.32C836.823 256.32 836.877 256.32 836.93 256.32C836.984 256.32 837.037 256.32 837.09 256.32C837.144 256.32 837.197 256.32 837.25 256.32C837.303 256.32 837.356 256.32 837.409 256.32C837.461 256.32 837.514 256.32 837.566 256.32C837.619 256.32 837.671 256.32 837.723 256.32C837.775 256.32 837.827 256.32 837.879 256.32C837.931 256.32 837.983 256.32 838.034 256.32C838.086 256.32 838.137 256.32 838.189 256.32C838.24 256.32 838.291 256.32 838.342 256.32C838.393 256.32 838.444 256.32 838.494 256.32C838.545 256.32 838.596 256.32 838.646 256.32C838.696 256.32 838.747 256.32 838.797 256.32C838.847 256.32 838.897 256.32 838.947 256.32C838.996 256.32 839.046 256.32 839.096 256.32C839.145 256.32 839.194 256.32 839.244 256.32C839.293 256.32 839.342 256.32 839.391 256.32C839.44 256.32 839.488 256.32 839.537 256.32C839.585 256.32 839.634 256.32 839.682 256.32C839.73 256.32 839.778 256.32 839.826 256.32C839.874 256.32 839.922 256.32 839.97 256.32C840.017 256.32 840.065 256.32 840.112 256.32C840.16 256.32 840.207 256.32 840.254 256.32C840.301 256.32 840.348 256.32 840.394 256.32C840.441 256.32 840.488 256.32 840.534 256.32C840.58 256.32 840.627 256.32 840.673 256.32C840.719 256.32 840.765 256.32 840.81 256.32C840.856 256.32 840.902 256.32 840.947 256.32C840.993 256.32 841.038 256.32 841.083 256.32C841.128 256.32 841.173 256.32 841.218 256.32C841.263 256.32 841.307 256.32 841.352 256.32V252.32ZM750.792 254.277C750.187 282.122 739.886 310.085 725.832 335.136L729.321 337.093C743.557 311.715 754.166 283.098 754.791 254.363L750.792 254.277ZM727.577 336.115C729.092 334.81 729.092 334.81 729.091 334.809C729.091 334.809 729.09 334.808 729.09 334.807C729.088 334.805 729.085 334.802 729.082 334.798C729.075 334.79 729.064 334.778 729.051 334.762C729.023 334.73 728.982 334.682 728.928 334.619C728.819 334.493 728.658 334.305 728.446 334.06C728.024 333.57 727.403 332.848 726.607 331.924C725.016 330.075 722.726 327.416 719.935 324.173C714.352 317.686 706.76 308.865 698.727 299.525C682.659 280.843 664.828 260.091 657.759 251.793L654.714 254.387C661.79 262.694 679.629 283.455 695.695 302.134C703.728 311.474 711.32 320.296 716.903 326.782C719.695 330.025 721.984 332.685 723.576 334.533C724.372 335.458 724.993 336.179 725.415 336.67C725.626 336.915 725.788 337.103 725.897 337.229C725.951 337.292 725.992 337.34 726.02 337.372C726.033 337.388 726.044 337.4 726.051 337.408C726.054 337.412 726.057 337.415 726.058 337.417C726.059 337.418 726.06 337.419 726.06 337.419C726.061 337.42 726.061 337.42 727.577 336.115ZM657.305 254.78C678.18 241.58 697.981 228.817 713.129 210.468C728.339 192.043 738.771 168.11 741.257 132.69L737.266 132.41C734.832 167.1 724.662 190.214 710.044 207.921C695.365 225.703 676.113 238.155 655.168 251.4L657.305 254.78ZM741.256 132.705C744.055 96.6293 735.51 69.0047 718.406 49.1424C701.327 29.3087 675.93 17.4661 645.489 12.4961L644.844 16.4438C674.673 21.3139 699.091 32.8412 715.375 51.7525C731.636 70.6352 740.004 97.1307 737.268 132.395L741.256 132.705ZM645.495 12.4972C559.743 -1.79482 500.177 44.2078 488.232 99.5329L492.142 100.377C503.566 47.4622 560.85 2.44478 644.838 16.4428L645.495 12.4972ZM488.234 99.5242C478.88 141.928 485.176 185.537 519.9 236.383L523.203 234.127C489.047 184.113 483.043 141.622 492.14 100.386L488.234 99.5242ZM520.537 233.532C464.948 266.267 419.307 309.231 419.307 385.315H423.307C423.307 311.339 467.455 269.433 522.566 236.978L520.537 233.532ZM419.307 385.315C419.307 415.177 428.009 451.645 452.054 480.685C476.157 509.797 515.497 531.225 576.287 531.225V527.225C516.536 527.225 478.386 506.218 455.135 478.135C431.824 449.98 423.307 414.493 423.307 385.315H419.307ZM576.287 531.225C634.027 531.225 683.649 508.868 723.891 477.293L721.422 474.147C681.714 505.302 632.937 527.225 576.287 527.225V531.225ZM721.047 476.908C730.578 489.819 738.57 500.733 744.181 508.418C746.986 512.261 749.195 515.296 750.703 517.371C751.457 518.408 752.035 519.205 752.426 519.743C752.621 520.011 752.768 520.215 752.867 520.352C752.917 520.42 752.954 520.472 752.979 520.506C752.992 520.524 753.001 520.537 753.007 520.545C753.01 520.549 753.013 520.553 753.014 520.555C753.015 520.556 753.016 520.557 753.016 520.557C753.016 520.557 753.016 520.558 753.017 520.558C753.017 520.558 753.017 520.558 754.637 519.385C756.256 518.212 756.256 518.212 756.256 518.212C756.256 518.212 756.256 518.211 756.256 518.211C756.255 518.211 756.255 518.21 756.254 518.209C756.252 518.206 756.25 518.203 756.247 518.199C756.241 518.19 756.231 518.177 756.219 518.16C756.193 518.125 756.156 518.073 756.106 518.005C756.007 517.868 755.859 517.663 755.663 517.394C755.273 516.855 754.693 516.057 753.939 515.019C752.429 512.942 750.218 509.904 747.411 506.06C741.798 498.37 733.801 487.451 724.266 474.532L721.047 476.908ZM754.637 521.385H875.792V517.385H754.637V521.385ZM877.356 518.139L788.181 406.209L785.052 408.701L874.227 520.631L877.356 518.139ZM582.5 115.93C585.671 105.839 593.481 98.6893 602.536 94.7138C611.627 90.7227 621.709 90.0487 629.137 92.62L630.446 88.84C621.884 85.8762 610.749 86.7397 600.928 91.0512C591.072 95.3782 582.277 103.296 578.684 114.73L582.5 115.93ZM629.178 92.6334C638.422 95.6154 646.89 100.929 652.024 108.811C657.114 116.625 659.099 127.225 654.935 141.204L658.768 142.346C663.214 127.42 661.202 115.572 655.376 106.628C649.594 97.7511 640.226 91.9946 630.406 88.8266L629.178 92.6334ZM654.93 141.221C650.541 156.436 636.981 167.474 624.114 174.783C617.726 178.412 611.613 181.062 607.095 182.805C604.838 183.676 602.984 184.318 601.699 184.742C601.056 184.953 600.556 185.11 600.22 185.213C600.052 185.264 599.924 185.302 599.841 185.327C599.799 185.34 599.768 185.349 599.748 185.355C599.738 185.357 599.731 185.359 599.726 185.361C599.724 185.361 599.723 185.362 599.722 185.362C599.722 185.362 599.722 185.362 599.722 185.362C599.722 185.362 599.722 185.362 600.272 187.285C600.821 189.208 600.822 189.208 600.823 189.208C600.823 189.207 600.824 189.207 600.825 189.207C600.828 189.206 600.83 189.205 600.834 189.204C600.841 189.202 600.851 189.199 600.864 189.196C600.89 189.188 600.927 189.177 600.975 189.163C601.071 189.135 601.21 189.093 601.391 189.038C601.753 188.927 602.28 188.762 602.95 188.541C604.291 188.099 606.208 187.435 608.535 186.537C613.184 184.744 619.486 182.013 626.09 178.262C639.207 170.811 653.937 159.094 658.773 142.329L654.93 141.221ZM600.272 187.285C601.699 185.885 601.7 185.885 601.7 185.885C601.7 185.885 601.7 185.885 601.7 185.885C601.7 185.885 601.699 185.884 601.698 185.883C601.696 185.881 601.692 185.877 601.686 185.87C601.674 185.858 601.654 185.838 601.628 185.81C601.575 185.755 601.494 185.669 601.387 185.554C601.173 185.324 600.855 184.975 600.451 184.515C599.643 183.593 598.493 182.223 597.145 180.452C594.446 176.907 590.966 171.771 587.845 165.416C581.598 152.697 576.856 135.239 582.511 115.891L578.672 114.769C572.643 135.395 577.74 153.915 584.255 167.18C587.514 173.817 591.145 179.174 593.962 182.875C595.372 184.727 596.581 186.168 597.443 187.151C597.874 187.643 598.218 188.02 598.458 188.278C598.577 188.407 598.671 188.506 598.736 188.574C598.769 188.608 598.794 188.634 598.812 188.653C598.821 188.662 598.828 188.67 598.834 188.675C598.836 188.678 598.838 188.68 598.84 188.682C598.841 188.683 598.842 188.683 598.842 188.684C598.843 188.685 598.844 188.685 600.272 187.285ZM627.207 434.502C564.826 459.333 518.017 422.904 518.017 381.625H514.017C514.017 426.445 564.378 463.817 628.686 438.218L627.207 434.502ZM518.017 381.625C518.017 344.012 543.592 320.547 577.962 299.066L575.842 295.674C541.331 317.243 514.017 341.748 514.017 381.625H518.017ZM575.386 298.674C598.121 325.096 633.152 368.117 666.991 409.339L670.082 406.801C636.271 365.613 601.193 322.534 578.418 296.065L575.386 298.674ZM667.208 406.575C650.661 421.283 636.107 430.942 627.204 434.503L628.689 438.217C638.236 434.398 653.202 424.377 669.865 409.565L667.208 406.575ZM1235.35 319.51V317.51H1233.56L1233.36 319.291L1235.35 319.51ZM1230.43 207.58L1228.47 207.987L1228.8 209.58H1230.43V207.58ZM1345.44 207.58V209.58H1347.85L1347.4 207.208L1345.44 207.58ZM1347.9 319.51L1349.88 319.782L1350.19 317.51H1347.9V319.51ZM1233.36 319.291C1229.42 355.118 1214.72 381.367 1193.5 398.679C1172.25 416.011 1144.28 424.52 1113.58 424.52V428.52C1145 428.52 1173.92 419.809 1196.02 401.779C1218.16 383.728 1233.29 356.472 1237.34 319.729L1233.36 319.291ZM1113.58 424.52C1077.13 424.52 1045.27 412.535 1022.5 387.505C999.717 362.456 985.815 324.096 985.815 270.925H981.815C981.815 324.764 995.896 364.201 1019.54 390.197C1043.21 416.213 1076.23 428.52 1113.58 428.52V424.52ZM985.815 270.925C985.815 218.07 999.866 179.706 1022.73 154.575C1045.58 129.463 1077.45 117.33 1113.58 117.33V113.33C1076.53 113.33 1043.51 125.797 1019.77 151.883C996.055 177.952 981.815 217.385 981.815 270.925H985.815ZM1113.58 117.33C1141.83 117.33 1167.37 124.771 1187.41 139.763C1207.43 154.742 1222.1 177.36 1228.47 207.987L1232.39 207.173C1225.84 175.685 1210.68 152.178 1189.81 136.56C1168.95 120.957 1142.52 113.33 1113.58 113.33V117.33ZM1230.43 209.58H1345.44V205.58H1230.43V209.58ZM1347.4 207.208C1335.64 144.994 1306.83 95.6688 1266.07 61.8993C1225.32 28.1314 1172.73 10.01 1113.58 10.01V14.01C1171.9 14.01 1223.55 31.866 1263.52 64.9794C1303.48 98.0912 1331.86 146.551 1343.47 207.952L1347.4 207.208ZM1113.58 10.01C1048.21 10.01 988.486 33.4063 945.101 77.8009C901.71 122.201 874.805 187.458 874.805 270.925H878.805C878.805 188.342 905.406 124.141 947.961 80.5966C990.522 37.0462 1049.18 14.01 1113.58 14.01V10.01ZM874.805 270.925C874.805 356.227 901.704 421.341 945.11 465.135C988.509 508.922 1048.24 531.225 1113.58 531.225V527.225C1049.16 527.225 990.499 505.248 947.951 462.32C905.412 419.399 878.805 355.363 878.805 270.925H874.805ZM1113.58 531.225C1172.41 531.225 1226.7 513.418 1268.7 478.018C1310.71 442.608 1340.29 389.708 1349.88 319.782L1345.91 319.238C1336.44 388.302 1307.29 440.26 1266.12 474.96C1224.94 509.669 1171.6 527.225 1113.58 527.225V531.225ZM1347.9 317.51H1235.35V321.51H1347.9V317.51Z" fill="#FFAE00" fill-opacity="0.56"/>
</svg>
