<svg width="107" height="42" viewBox="0 0 107 42" fill="none" xmlns="http://www.w3.org/2000/svg">
<g filter="url(#filter0_b_391_201)">
<path d="M19.056 17.768L19.4915 15.816L19.4834 15.8142L19.056 17.768ZM24.192 14.6H22.192V16.6H24.192V14.6ZM32.688 14.6V16.6H34.688V14.6H32.688ZM15.264 24.344L15.7308 22.3992L15.7238 22.3976L15.264 24.344ZM10.128 28.568H12.128V26.568H10.128V28.568ZM0.912 28.568V26.568H-1.088V28.568H0.912ZM19.4834 15.8142C17.1178 15.2967 15.2046 14.8566 13.8709 14.2615C12.5074 13.6532 12.512 13.2437 12.512 13.112H8.512C8.512 15.7163 10.4846 17.1308 12.2411 17.9145C14.0274 18.7114 16.3862 19.2313 18.6286 19.7218L19.4834 15.8142ZM12.512 13.112C12.512 12.7595 12.6999 12.3115 13.5838 11.8436C14.4683 11.3753 15.671 11.128 16.656 11.128V7.128C15.145 7.128 13.2757 7.48073 11.7122 8.30842C10.1481 9.13648 8.512 10.6805 8.512 13.112H12.512ZM16.656 11.128C18.2205 11.128 19.7506 11.5106 20.8201 12.1198C21.9055 12.7381 22.192 13.3659 22.192 13.832H26.192C26.192 11.3701 24.5585 9.64591 22.7999 8.64416C21.0254 7.63337 18.7875 7.128 16.656 7.128V11.128ZM22.192 13.832V14.6H26.192V13.832H22.192ZM24.192 16.6H32.688V12.6H24.192V16.6ZM34.688 14.6V13.832H30.688V14.6H34.688ZM34.688 13.832C34.688 9.56698 32.8454 5.89814 29.7207 3.33394C26.6228 0.791682 22.3561 -0.600002 17.52 -0.600002V3.4C21.6119 3.4 24.9292 4.57631 27.1833 6.42606C29.4106 8.25386 30.688 10.801 30.688 13.832H34.688ZM17.52 -0.600002C12.3573 -0.600002 7.88951 0.701883 4.66388 3.21148C1.39079 5.758 -0.464 9.44954 -0.464 13.832H3.536C3.536 10.6785 4.82521 8.154 7.12012 6.36852C9.46249 4.54611 12.9867 3.4 17.52 3.4V-0.600002ZM-0.464 13.832C-0.464 18.3612 2.01028 21.2056 5.11377 22.9979C8.08576 24.7143 11.8241 25.5865 14.8042 26.2904L15.7238 22.3976C12.6079 21.6615 9.48224 20.9017 7.11423 19.5341C4.87772 18.2424 3.536 16.5508 3.536 13.832H-0.464ZM14.7973 26.2888C17.273 26.8829 19.2827 27.3664 20.6984 28.0118C22.1401 28.6691 22.192 29.1254 22.192 29.336H26.192C26.192 26.6666 24.1799 25.2029 22.3576 24.3722C20.5093 23.5296 18.055 22.9571 15.7307 22.3992L14.7973 26.2888ZM22.192 29.336C22.192 30.2558 21.8219 30.7535 21.0947 31.1424C20.2263 31.6069 18.8939 31.848 17.328 31.848V35.848C19.1701 35.848 21.2697 35.5851 22.9813 34.6696C24.8341 33.6785 26.192 31.9202 26.192 29.336H22.192ZM17.328 31.848C15.6887 31.848 14.2543 31.5777 13.3069 31.0808C12.4655 30.6395 12.128 30.117 12.128 29.336H8.128C8.128 31.915 9.59053 33.6485 11.4491 34.6232C13.2017 35.5423 15.3673 35.848 17.328 35.848V31.848ZM12.128 29.336V28.568H8.128V29.336H12.128ZM10.128 26.568H0.912V30.568H10.128V26.568ZM-1.088 28.568V29.336H2.912V28.568H-1.088ZM-1.088 29.336C-1.088 33.4068 0.624689 37.0581 3.68389 39.6612C6.72611 42.2499 10.9932 43.72 16.032 43.72V39.72C11.7588 39.72 8.46589 38.4781 6.27611 36.6148C4.10331 34.7659 2.912 32.2252 2.912 29.336H-1.088ZM16.032 43.72C21.9195 43.72 26.6651 42.3067 29.9794 39.6273C33.3424 36.9086 35.024 33.05 35.024 28.664H31.024C31.024 31.958 29.8016 34.6274 27.4646 36.5167C25.0789 38.4453 21.3285 39.72 16.032 39.72V43.72ZM35.024 28.664C35.024 26.369 34.4476 24.421 33.4008 22.7944C32.3647 21.1845 30.9369 19.9958 29.3858 19.0933C26.3552 17.33 22.5369 16.4953 19.4915 15.816L18.6206 19.72C21.8151 20.4326 24.9808 21.158 27.3742 22.5507C28.5351 23.2262 29.4293 24.0145 30.0372 24.9591C30.6344 25.887 31.024 27.071 31.024 28.664H35.024ZM62.253 32.216L60.6072 31.0796L59.7637 32.3012L60.6888 33.4622L62.253 32.216ZM66.525 20.264H68.525V18.264H66.525V20.264ZM59.613 20.264V18.264H57.656L57.6135 20.2205L59.613 20.264ZM57.645 26.648L56.1295 27.953L57.9925 30.1165L59.3893 27.6265L57.645 26.648ZM52.077 20.168L51.0081 18.4776L49.0594 19.7098L50.5545 21.4649L52.077 20.168ZM58.557 10.76L56.563 10.6053L56.5624 10.6126L56.5619 10.62L58.557 10.76ZM51.213 1.544L50.8842 3.5168L50.8907 3.51786L51.213 1.544ZM39.117 8.216L41.0701 8.64682L41.072 8.63809L39.117 8.216ZM41.565 18.776L42.5799 20.4994L44.4227 19.4142L43.2166 17.6481L41.565 18.776ZM57.261 37.544L58.8701 36.3563L57.6469 34.699L56.0264 35.9705L57.261 37.544ZM59.757 40.952L58.1371 42.125L58.736 42.952H59.757V40.952ZM69.213 40.952V42.952H73.3635L70.7773 39.7058L69.213 40.952ZM46.173 9.416L44.265 8.81634L44.259 8.83555L44.2533 8.85486L46.173 9.416ZM50.013 7.496L49.3588 9.38597L49.3788 9.39291L49.399 9.39942L50.013 7.496ZM52.125 11.48L50.2082 10.909L50.2058 10.9174L50.2034 10.9257L52.125 11.48ZM47.709 15.032L46.2811 16.4324L47.1143 17.2819L48.2584 16.955L47.709 15.032ZM49.869 34.472L50.6087 36.3302L50.6118 36.329L49.869 34.472ZM45.885 23.624L47.401 22.3195L46.2811 21.018L44.825 21.928L45.885 23.624ZM53.037 32.264L54.3657 33.7588L55.8029 32.4813L54.5829 30.995L53.037 32.264ZM63.8988 33.3524C66.8575 29.0674 68.525 24.1185 68.525 20.264H64.525C64.525 23.1295 63.2165 27.3006 60.6072 31.0796L63.8988 33.3524ZM66.525 18.264C66.5215 18.264 66.5181 18.264 66.5146 18.264C66.5111 18.264 66.5076 18.264 66.504 18.264C66.5005 18.264 66.497 18.264 66.4934 18.264C66.4899 18.264 66.4863 18.264 66.4828 18.264C66.4792 18.264 66.4756 18.264 66.472 18.264C66.4684 18.264 66.4648 18.264 66.4612 18.264C66.4576 18.264 66.4539 18.264 66.4503 18.264C66.4466 18.264 66.443 18.264 66.4393 18.264C66.4357 18.264 66.432 18.264 66.4283 18.264C66.4246 18.264 66.4209 18.264 66.4172 18.264C66.4134 18.264 66.4097 18.264 66.406 18.264C66.4022 18.264 66.3985 18.264 66.3947 18.264C66.3909 18.264 66.3872 18.264 66.3834 18.264C66.3796 18.264 66.3758 18.264 66.3719 18.264C66.3681 18.264 66.3643 18.264 66.3605 18.264C66.3566 18.264 66.3528 18.264 66.3489 18.264C66.3451 18.264 66.3412 18.264 66.3373 18.264C66.3334 18.264 66.3295 18.264 66.3256 18.264C66.3217 18.264 66.3178 18.264 66.3138 18.264C66.3099 18.264 66.306 18.264 66.302 18.264C66.298 18.264 66.2941 18.264 66.2901 18.264C66.2861 18.264 66.2821 18.264 66.2781 18.264C66.2741 18.264 66.2701 18.264 66.2661 18.264C66.2621 18.264 66.258 18.264 66.254 18.264C66.2499 18.264 66.2459 18.264 66.2418 18.264C66.2377 18.264 66.2337 18.264 66.2296 18.264C66.2255 18.264 66.2214 18.264 66.2172 18.264C66.2131 18.264 66.209 18.264 66.2049 18.264C66.2007 18.264 66.1966 18.264 66.1924 18.264C66.1883 18.264 66.1841 18.264 66.1799 18.264C66.1757 18.264 66.1715 18.264 66.1673 18.264C66.1631 18.264 66.1589 18.264 66.1547 18.264C66.1505 18.264 66.1462 18.264 66.142 18.264C66.1377 18.264 66.1335 18.264 66.1292 18.264C66.125 18.264 66.1207 18.264 66.1164 18.264C66.1121 18.264 66.1078 18.264 66.1035 18.264C66.0992 18.264 66.0949 18.264 66.0905 18.264C66.0862 18.264 66.0819 18.264 66.0775 18.264C66.0732 18.264 66.0688 18.264 66.0644 18.264C66.0601 18.264 66.0557 18.264 66.0513 18.264C66.0469 18.264 66.0425 18.264 66.0381 18.264C66.0337 18.264 66.0292 18.264 66.0248 18.264C66.0204 18.264 66.0159 18.264 66.0115 18.264C66.007 18.264 66.0025 18.264 65.9981 18.264C65.9936 18.264 65.9891 18.264 65.9846 18.264C65.9801 18.264 65.9756 18.264 65.9711 18.264C65.9666 18.264 65.9621 18.264 65.9575 18.264C65.953 18.264 65.9485 18.264 65.9439 18.264C65.9394 18.264 65.9348 18.264 65.9302 18.264C65.9256 18.264 65.9211 18.264 65.9165 18.264C65.9119 18.264 65.9073 18.264 65.9027 18.264C65.8981 18.264 65.8934 18.264 65.8888 18.264C65.8842 18.264 65.8795 18.264 65.8749 18.264C65.8702 18.264 65.8656 18.264 65.8609 18.264C65.8562 18.264 65.8516 18.264 65.8469 18.264C65.8422 18.264 65.8375 18.264 65.8328 18.264C65.8281 18.264 65.8234 18.264 65.8186 18.264C65.8139 18.264 65.8092 18.264 65.8044 18.264C65.7997 18.264 65.7949 18.264 65.7902 18.264C65.7854 18.264 65.7806 18.264 65.7759 18.264C65.7711 18.264 65.7663 18.264 65.7615 18.264C65.7567 18.264 65.7519 18.264 65.7471 18.264C65.7423 18.264 65.7374 18.264 65.7326 18.264C65.7278 18.264 65.7229 18.264 65.7181 18.264C65.7132 18.264 65.7084 18.264 65.7035 18.264C65.6987 18.264 65.6938 18.264 65.6889 18.264C65.684 18.264 65.6791 18.264 65.6742 18.264C65.6693 18.264 65.6644 18.264 65.6595 18.264C65.6546 18.264 65.6496 18.264 65.6447 18.264C65.6398 18.264 65.6348 18.264 65.6299 18.264C65.6249 18.264 65.6199 18.264 65.615 18.264C65.61 18.264 65.605 18.264 65.6 18.264C65.5951 18.264 65.5901 18.264 65.5851 18.264C65.5801 18.264 65.575 18.264 65.57 18.264C65.565 18.264 65.56 18.264 65.5549 18.264C65.5499 18.264 65.5449 18.264 65.5398 18.264C65.5348 18.264 65.5297 18.264 65.5246 18.264C65.5196 18.264 65.5145 18.264 65.5094 18.264C65.5043 18.264 65.4992 18.264 65.4941 18.264C65.489 18.264 65.4839 18.264 65.4788 18.264C65.4737 18.264 65.4686 18.264 65.4634 18.264C65.4583 18.264 65.4532 18.264 65.448 18.264C65.4429 18.264 65.4377 18.264 65.4326 18.264C65.4274 18.264 65.4222 18.264 65.4171 18.264C65.4119 18.264 65.4067 18.264 65.4015 18.264C65.3963 18.264 65.3911 18.264 65.3859 18.264C65.3807 18.264 65.3755 18.264 65.3703 18.264C65.3651 18.264 65.3598 18.264 65.3546 18.264C65.3494 18.264 65.3441 18.264 65.3389 18.264C65.3336 18.264 65.3284 18.264 65.3231 18.264C65.3179 18.264 65.3126 18.264 65.3073 18.264C65.302 18.264 65.2968 18.264 65.2915 18.264C65.2862 18.264 65.2809 18.264 65.2756 18.264C65.2703 18.264 65.2649 18.264 65.2596 18.264C65.2543 18.264 65.249 18.264 65.2437 18.264C65.2383 18.264 65.233 18.264 65.2276 18.264C65.2223 18.264 65.2169 18.264 65.2116 18.264C65.2062 18.264 65.2008 18.264 65.1955 18.264C65.1901 18.264 65.1847 18.264 65.1793 18.264C65.174 18.264 65.1686 18.264 65.1632 18.264C65.1578 18.264 65.1524 18.264 65.1469 18.264C65.1415 18.264 65.1361 18.264 65.1307 18.264C65.1253 18.264 65.1198 18.264 65.1144 18.264C65.1089 18.264 65.1035 18.264 65.0981 18.264C65.0926 18.264 65.0872 18.264 65.0817 18.264C65.0762 18.264 65.0708 18.264 65.0653 18.264C65.0598 18.264 65.0543 18.264 65.0488 18.264C65.0434 18.264 65.0379 18.264 65.0324 18.264C65.0269 18.264 65.0214 18.264 65.0158 18.264C65.0103 18.264 65.0048 18.264 64.9993 18.264C64.9938 18.264 64.9882 18.264 64.9827 18.264C64.9772 18.264 64.9716 18.264 64.9661 18.264C64.9605 18.264 64.955 18.264 64.9494 18.264C64.9439 18.264 64.9383 18.264 64.9327 18.264C64.9272 18.264 64.9216 18.264 64.916 18.264C64.9104 18.264 64.9049 18.264 64.8993 18.264C64.8937 18.264 64.8881 18.264 64.8825 18.264C64.8769 18.264 64.8713 18.264 64.8657 18.264C64.86 18.264 64.8544 18.264 64.8488 18.264C64.8432 18.264 64.8376 18.264 64.8319 18.264C64.8263 18.264 64.8206 18.264 64.815 18.264C64.8094 18.264 64.8037 18.264 64.7981 18.264C64.7924 18.264 64.7868 18.264 64.7811 18.264C64.7754 18.264 64.7698 18.264 64.7641 18.264C64.7584 18.264 64.7527 18.264 64.747 18.264C64.7414 18.264 64.7357 18.264 64.73 18.264C64.7243 18.264 64.7186 18.264 64.7129 18.264C64.7072 18.264 64.7015 18.264 64.6958 18.264C64.69 18.264 64.6843 18.264 64.6786 18.264C64.6729 18.264 64.6672 18.264 64.6614 18.264C64.6557 18.264 64.6499 18.264 64.6442 18.264C64.6385 18.264 64.6327 18.264 64.627 18.264C64.6212 18.264 64.6155 18.264 64.6097 18.264C64.604 18.264 64.5982 18.264 64.5924 18.264C64.5867 18.264 64.5809 18.264 64.5751 18.264C64.5693 18.264 64.5636 18.264 64.5578 18.264C64.552 18.264 64.5462 18.264 64.5404 18.264C64.5346 18.264 64.5288 18.264 64.523 18.264C64.5172 18.264 64.5114 18.264 64.5056 18.264C64.4998 18.264 64.494 18.264 64.4882 18.264C64.4823 18.264 64.4765 18.264 64.4707 18.264C64.4649 18.264 64.459 18.264 64.4532 18.264C64.4474 18.264 64.4415 18.264 64.4357 18.264C64.4299 18.264 64.424 18.264 64.4182 18.264C64.4123 18.264 64.4065 18.264 64.4006 18.264C64.3948 18.264 64.3889 18.264 64.383 18.264C64.3772 18.264 64.3713 18.264 64.3654 18.264C64.3596 18.264 64.3537 18.264 64.3478 18.264C64.3419 18.264 64.3361 18.264 64.3302 18.264C64.3243 18.264 64.3184 18.264 64.3125 18.264C64.3066 18.264 64.3007 18.264 64.2949 18.264C64.289 18.264 64.2831 18.264 64.2772 18.264C64.2712 18.264 64.2653 18.264 64.2594 18.264C64.2535 18.264 64.2476 18.264 64.2417 18.264C64.2358 18.264 64.2299 18.264 64.2239 18.264C64.218 18.264 64.2121 18.264 64.2062 18.264C64.2002 18.264 64.1943 18.264 64.1884 18.264C64.1824 18.264 64.1765 18.264 64.1706 18.264C64.1646 18.264 64.1587 18.264 64.1527 18.264C64.1468 18.264 64.1409 18.264 64.1349 18.264C64.129 18.264 64.123 18.264 64.1171 18.264C64.1111 18.264 64.1051 18.264 64.0992 18.264C64.0932 18.264 64.0872 18.264 64.0813 18.264C64.0753 18.264 64.0694 18.264 64.0634 18.264C64.0574 18.264 64.0514 18.264 64.0455 18.264C64.0395 18.264 64.0335 18.264 64.0275 18.264C64.0216 18.264 64.0156 18.264 64.0096 18.264C64.0036 18.264 63.9976 18.264 63.9916 18.264C63.9856 18.264 63.9796 18.264 63.9737 18.264C63.9677 18.264 63.9617 18.264 63.9557 18.264C63.9497 18.264 63.9437 18.264 63.9377 18.264C63.9317 18.264 63.9257 18.264 63.9197 18.264C63.9137 18.264 63.9076 18.264 63.9016 18.264C63.8956 18.264 63.8896 18.264 63.8836 18.264C63.8776 18.264 63.8716 18.264 63.8656 18.264C63.8595 18.264 63.8535 18.264 63.8475 18.264C63.8415 18.264 63.8355 18.264 63.8294 18.264C63.8234 18.264 63.8174 18.264 63.8114 18.264C63.8053 18.264 63.7993 18.264 63.7933 18.264C63.7873 18.264 63.7812 18.264 63.7752 18.264C63.7692 18.264 63.7631 18.264 63.7571 18.264C63.7511 18.264 63.745 18.264 63.739 18.264C63.7329 18.264 63.7269 18.264 63.7209 18.264C63.7148 18.264 63.7088 18.264 63.7027 18.264C63.6967 18.264 63.6907 18.264 63.6846 18.264C63.6786 18.264 63.6725 18.264 63.6665 18.264C63.6604 18.264 63.6544 18.264 63.6483 18.264C63.6423 18.264 63.6362 18.264 63.6302 18.264C63.6241 18.264 63.6181 18.264 63.612 18.264C63.606 18.264 63.5999 18.264 63.5939 18.264C63.5878 18.264 63.5818 18.264 63.5757 18.264C63.5696 18.264 63.5636 18.264 63.5575 18.264C63.5515 18.264 63.5454 18.264 63.5394 18.264C63.5333 18.264 63.5272 18.264 63.5212 18.264C63.5151 18.264 63.5091 18.264 63.503 18.264C63.4969 18.264 63.4909 18.264 63.4848 18.264C63.4788 18.264 63.4727 18.264 63.4666 18.264C63.4606 18.264 63.4545 18.264 63.4484 18.264C63.4424 18.264 63.4363 18.264 63.4303 18.264C63.4242 18.264 63.4181 18.264 63.4121 18.264C63.406 18.264 63.3999 18.264 63.3939 18.264C63.3878 18.264 63.3817 18.264 63.3757 18.264C63.3696 18.264 63.3636 18.264 63.3575 18.264C63.3514 18.264 63.3454 18.264 63.3393 18.264C63.3332 18.264 63.3272 18.264 63.3211 18.264C63.315 18.264 63.309 18.264 63.3029 18.264C63.2969 18.264 63.2908 18.264 63.2847 18.264C63.2787 18.264 63.2726 18.264 63.2665 18.264C63.2605 18.264 63.2544 18.264 63.2484 18.264C63.2423 18.264 63.2362 18.264 63.2302 18.264C63.2241 18.264 63.2181 18.264 63.212 18.264C63.2059 18.264 63.1999 18.264 63.1938 18.264C63.1878 18.264 63.1817 18.264 63.1756 18.264C63.1696 18.264 63.1635 18.264 63.1575 18.264C63.1514 18.264 63.1454 18.264 63.1393 18.264C63.1333 18.264 63.1272 18.264 63.1211 18.264C63.1151 18.264 63.109 18.264 63.103 18.264C63.0969 18.264 63.0909 18.264 63.0848 18.264C63.0788 18.264 63.0727 18.264 63.0667 18.264C63.0607 18.264 63.0546 18.264 63.0486 18.264C63.0425 18.264 63.0365 18.264 63.0304 18.264C63.0244 18.264 63.0183 18.264 63.0123 18.264C63.0063 18.264 63.0002 18.264 62.9942 18.264C62.9882 18.264 62.9821 18.264 62.9761 18.264C62.97 18.264 62.964 18.264 62.958 18.264C62.952 18.264 62.9459 18.264 62.9399 18.264C62.9339 18.264 62.9278 18.264 62.9218 18.264C62.9158 18.264 62.9098 18.264 62.9037 18.264C62.8977 18.264 62.8917 18.264 62.8857 18.264C62.8797 18.264 62.8736 18.264 62.8676 18.264C62.8616 18.264 62.8556 18.264 62.8496 18.264C62.8436 18.264 62.8376 18.264 62.8315 18.264C62.8255 18.264 62.8195 18.264 62.8135 18.264C62.8075 18.264 62.8015 18.264 62.7955 18.264C62.7895 18.264 62.7835 18.264 62.7775 18.264C62.7715 18.264 62.7655 18.264 62.7595 18.264C62.7535 18.264 62.7475 18.264 62.7416 18.264C62.7356 18.264 62.7296 18.264 62.7236 18.264C62.7176 18.264 62.7116 18.264 62.7057 18.264C62.6997 18.264 62.6937 18.264 62.6877 18.264C62.6817 18.264 62.6758 18.264 62.6698 18.264C62.6638 18.264 62.6579 18.264 62.6519 18.264C62.6459 18.264 62.64 18.264 62.634 18.264C62.628 18.264 62.6221 18.264 62.6161 18.264C62.6102 18.264 62.6042 18.264 62.5983 18.264C62.5923 18.264 62.5864 18.264 62.5804 18.264C62.5745 18.264 62.5686 18.264 62.5626 18.264C62.5567 18.264 62.5507 18.264 62.5448 18.264C62.5389 18.264 62.5329 18.264 62.527 18.264C62.5211 18.264 62.5152 18.264 62.5092 18.264C62.5033 18.264 62.4974 18.264 62.4915 18.264C62.4856 18.264 62.4797 18.264 62.4738 18.264C62.4678 18.264 62.4619 18.264 62.456 18.264C62.4501 18.264 62.4442 18.264 62.4383 18.264C62.4324 18.264 62.4265 18.264 62.4207 18.264C62.4148 18.264 62.4089 18.264 62.403 18.264C62.3971 18.264 62.3912 18.264 62.3854 18.264C62.3795 18.264 62.3736 18.264 62.3677 18.264C62.3619 18.264 62.356 18.264 62.3502 18.264C62.3443 18.264 62.3384 18.264 62.3326 18.264C62.3267 18.264 62.3209 18.264 62.315 18.264C62.3092 18.264 62.3033 18.264 62.2975 18.264C62.2916 18.264 62.2858 18.264 62.28 18.264C62.2742 18.264 62.2683 18.264 62.2625 18.264C62.2567 18.264 62.2509 18.264 62.245 18.264C62.2392 18.264 62.2334 18.264 62.2276 18.264C62.2218 18.264 62.216 18.264 62.2102 18.264C62.2044 18.264 62.1986 18.264 62.1928 18.264C62.187 18.264 62.1812 18.264 62.1754 18.264C62.1696 18.264 62.1639 18.264 62.1581 18.264C62.1523 18.264 62.1465 18.264 62.1408 18.264C62.135 18.264 62.1292 18.264 62.1235 18.264C62.1177 18.264 62.112 18.264 62.1062 18.264C62.1005 18.264 62.0947 18.264 62.089 18.264C62.0833 18.264 62.0775 18.264 62.0718 18.264C62.0661 18.264 62.0603 18.264 62.0546 18.264C62.0489 18.264 62.0432 18.264 62.0375 18.264C62.0317 18.264 62.026 18.264 62.0203 18.264C62.0146 18.264 62.0089 18.264 62.0032 18.264C61.9975 18.264 61.9919 18.264 61.9862 18.264C61.9805 18.264 61.9748 18.264 61.9691 18.264C61.9635 18.264 61.9578 18.264 61.9521 18.264C61.9465 18.264 61.9408 18.264 61.9351 18.264C61.9295 18.264 61.9238 18.264 61.9182 18.264C61.9126 18.264 61.9069 18.264 61.9013 18.264C61.8957 18.264 61.89 18.264 61.8844 18.264C61.8788 18.264 61.8732 18.264 61.8676 18.264C61.8619 18.264 61.8563 18.264 61.8507 18.264C61.8451 18.264 61.8395 18.264 61.8339 18.264C61.8284 18.264 61.8228 18.264 61.8172 18.264C61.8116 18.264 61.806 18.264 61.8005 18.264C61.7949 18.264 61.7893 18.264 61.7838 18.264C61.7782 18.264 61.7727 18.264 61.7671 18.264C61.7616 18.264 61.756 18.264 61.7505 18.264C61.745 18.264 61.7394 18.264 61.7339 18.264C61.7284 18.264 61.7229 18.264 61.7174 18.264C61.7119 18.264 61.7064 18.264 61.7009 18.264C61.6954 18.264 61.6899 18.264 61.6844 18.264C61.6789 18.264 61.6734 18.264 61.6679 18.264C61.6625 18.264 61.657 18.264 61.6515 18.264C61.6461 18.264 61.6406 18.264 61.6352 18.264C61.6297 18.264 61.6243 18.264 61.6188 18.264C61.6134 18.264 61.608 18.264 61.6025 18.264C61.5971 18.264 61.5917 18.264 61.5863 18.264C61.5809 18.264 61.5755 18.264 61.5701 18.264C61.5647 18.264 61.5593 18.264 61.5539 18.264C61.5485 18.264 61.5431 18.264 61.5378 18.264C61.5324 18.264 61.527 18.264 61.5217 18.264C61.5163 18.264 61.511 18.264 61.5056 18.264C61.5003 18.264 61.4949 18.264 61.4896 18.264C61.4843 18.264 61.4789 18.264 61.4736 18.264C61.4683 18.264 61.463 18.264 61.4577 18.264C61.4524 18.264 61.4471 18.264 61.4418 18.264C61.4365 18.264 61.4312 18.264 61.4259 18.264C61.4207 18.264 61.4154 18.264 61.4101 18.264C61.4049 18.264 61.3996 18.264 61.3944 18.264C61.3891 18.264 61.3839 18.264 61.3786 18.264C61.3734 18.264 61.3682 18.264 61.3629 18.264C61.3577 18.264 61.3525 18.264 61.3473 18.264C61.3421 18.264 61.3369 18.264 61.3317 18.264C61.3265 18.264 61.3213 18.264 61.3162 18.264C61.311 18.264 61.3058 18.264 61.3007 18.264C61.2955 18.264 61.2904 18.264 61.2852 18.264C61.2801 18.264 61.2749 18.264 61.2698 18.264C61.2647 18.264 61.2596 18.264 61.2544 18.264C61.2493 18.264 61.2442 18.264 61.2391 18.264C61.234 18.264 61.2289 18.264 61.2238 18.264C61.2188 18.264 61.2137 18.264 61.2086 18.264C61.2036 18.264 61.1985 18.264 61.1934 18.264C61.1884 18.264 61.1834 18.264 61.1783 18.264C61.1733 18.264 61.1683 18.264 61.1632 18.264C61.1582 18.264 61.1532 18.264 61.1482 18.264C61.1432 18.264 61.1382 18.264 61.1332 18.264C61.1282 18.264 61.1233 18.264 61.1183 18.264C61.1133 18.264 61.1084 18.264 61.1034 18.264C61.0985 18.264 61.0935 18.264 61.0886 18.264C61.0836 18.264 61.0787 18.264 61.0738 18.264C61.0689 18.264 61.064 18.264 61.0591 18.264C61.0542 18.264 61.0493 18.264 61.0444 18.264C61.0395 18.264 61.0346 18.264 61.0298 18.264C61.0249 18.264 61.02 18.264 61.0152 18.264C61.0103 18.264 61.0055 18.264 61.0007 18.264C60.9958 18.264 60.991 18.264 60.9862 18.264C60.9814 18.264 60.9766 18.264 60.9718 18.264C60.967 18.264 60.9622 18.264 60.9574 18.264C60.9526 18.264 60.9479 18.264 60.9431 18.264C60.9383 18.264 60.9336 18.264 60.9288 18.264C60.9241 18.264 60.9194 18.264 60.9146 18.264C60.9099 18.264 60.9052 18.264 60.9005 18.264C60.8958 18.264 60.8911 18.264 60.8864 18.264C60.8817 18.264 60.8771 18.264 60.8724 18.264C60.8677 18.264 60.8631 18.264 60.8584 18.264C60.8538 18.264 60.8491 18.264 60.8445 18.264C60.8399 18.264 60.8352 18.264 60.8306 18.264C60.826 18.264 60.8214 18.264 60.8168 18.264C60.8122 18.264 60.8077 18.264 60.8031 18.264C60.7985 18.264 60.7939 18.264 60.7894 18.264C60.7848 18.264 60.7803 18.264 60.7758 18.264C60.7712 18.264 60.7667 18.264 60.7622 18.264C60.7577 18.264 60.7532 18.264 60.7487 18.264C60.7442 18.264 60.7397 18.264 60.7352 18.264C60.7308 18.264 60.7263 18.264 60.7218 18.264C60.7174 18.264 60.7129 18.264 60.7085 18.264C60.7041 18.264 60.6997 18.264 60.6952 18.264C60.6908 18.264 60.6864 18.264 60.682 18.264C60.6776 18.264 60.6733 18.264 60.6689 18.264C60.6645 18.264 60.6602 18.264 60.6558 18.264C60.6515 18.264 60.6471 18.264 60.6428 18.264C60.6385 18.264 60.6341 18.264 60.6298 18.264C60.6255 18.264 60.6212 18.264 60.6169 18.264C60.6126 18.264 60.6084 18.264 60.6041 18.264C60.5998 18.264 60.5956 18.264 60.5913 18.264C60.5871 18.264 60.5829 18.264 60.5786 18.264C60.5744 18.264 60.5702 18.264 60.566 18.264C60.5618 18.264 60.5576 18.264 60.5534 18.264C60.5492 18.264 60.5451 18.264 60.5409 18.264C60.5368 18.264 60.5326 18.264 60.5285 18.264C60.5243 18.264 60.5202 18.264 60.5161 18.264C60.512 18.264 60.5079 18.264 60.5038 18.264C60.4997 18.264 60.4956 18.264 60.4915 18.264C60.4875 18.264 60.4834 18.264 60.4794 18.264C60.4753 18.264 60.4713 18.264 60.4673 18.264C60.4632 18.264 60.4592 18.264 60.4552 18.264C60.4512 18.264 60.4472 18.264 60.4433 18.264C60.4393 18.264 60.4353 18.264 60.4314 18.264C60.4274 18.264 60.4235 18.264 60.4195 18.264C60.4156 18.264 60.4117 18.264 60.4078 18.264C60.4038 18.264 60.4 18.264 60.3961 18.264C60.3922 18.264 60.3883 18.264 60.3844 18.264C60.3806 18.264 60.3767 18.264 60.3729 18.264C60.3691 18.264 60.3652 18.264 60.3614 18.264C60.3576 18.264 60.3538 18.264 60.35 18.264C60.3462 18.264 60.3424 18.264 60.3387 18.264C60.3349 18.264 60.3312 18.264 60.3274 18.264C60.3237 18.264 60.3199 18.264 60.3162 18.264C60.3125 18.264 60.3088 18.264 60.3051 18.264C60.3014 18.264 60.2977 18.264 60.2941 18.264C60.2904 18.264 60.2867 18.264 60.2831 18.264C60.2794 18.264 60.2758 18.264 60.2722 18.264C60.2686 18.264 60.265 18.264 60.2614 18.264C60.2578 18.264 60.2542 18.264 60.2506 18.264C60.2471 18.264 60.2435 18.264 60.2399 18.264C60.2364 18.264 60.2329 18.264 60.2294 18.264C60.2258 18.264 60.2223 18.264 60.2188 18.264C60.2153 18.264 60.2119 18.264 60.2084 18.264C60.2049 18.264 60.2015 18.264 60.198 18.264C60.1946 18.264 60.1912 18.264 60.1877 18.264C60.1843 18.264 60.1809 18.264 60.1775 18.264C60.1741 18.264 60.1708 18.264 60.1674 18.264C60.164 18.264 60.1607 18.264 60.1573 18.264C60.154 18.264 60.1507 18.264 60.1474 18.264C60.1441 18.264 60.1408 18.264 60.1375 18.264C60.1342 18.264 60.1309 18.264 60.1277 18.264C60.1244 18.264 60.1212 18.264 60.1179 18.264C60.1147 18.264 60.1115 18.264 60.1083 18.264C60.1051 18.264 60.1019 18.264 60.0987 18.264C60.0955 18.264 60.0923 18.264 60.0892 18.264C60.086 18.264 60.0829 18.264 60.0798 18.264C60.0767 18.264 60.0735 18.264 60.0704 18.264C60.0673 18.264 60.0643 18.264 60.0612 18.264C60.0581 18.264 60.0551 18.264 60.052 18.264C60.049 18.264 60.046 18.264 60.0429 18.264C60.0399 18.264 60.0369 18.264 60.0339 18.264C60.031 18.264 60.028 18.264 60.025 18.264C60.0221 18.264 60.0191 18.264 60.0162 18.264C60.0133 18.264 60.0104 18.264 60.0075 18.264C60.0046 18.264 60.0017 18.264 59.9988 18.264C59.9959 18.264 59.9931 18.264 59.9902 18.264C59.9874 18.264 59.9845 18.264 59.9817 18.264C59.9789 18.264 59.9761 18.264 59.9733 18.264C59.9705 18.264 59.9678 18.264 59.965 18.264C59.9622 18.264 59.9595 18.264 59.9568 18.264C59.954 18.264 59.9513 18.264 59.9486 18.264C59.9459 18.264 59.9432 18.264 59.9406 18.264C59.9379 18.264 59.9352 18.264 59.9326 18.264C59.93 18.264 59.9273 18.264 59.9247 18.264C59.9221 18.264 59.9195 18.264 59.9169 18.264C59.9143 18.264 59.9118 18.264 59.9092 18.264C59.9067 18.264 59.9041 18.264 59.9016 18.264C59.8991 18.264 59.8966 18.264 59.8941 18.264C59.8916 18.264 59.8891 18.264 59.8866 18.264C59.8842 18.264 59.8817 18.264 59.8793 18.264C59.8769 18.264 59.8744 18.264 59.872 18.264C59.8696 18.264 59.8673 18.264 59.8649 18.264C59.8625 18.264 59.8602 18.264 59.8578 18.264C59.8555 18.264 59.8531 18.264 59.8508 18.264C59.8485 18.264 59.8462 18.264 59.8439 18.264C59.8417 18.264 59.8394 18.264 59.8372 18.264C59.8349 18.264 59.8327 18.264 59.8305 18.264C59.8282 18.264 59.826 18.264 59.8239 18.264C59.8217 18.264 59.8195 18.264 59.8173 18.264C59.8152 18.264 59.813 18.264 59.8109 18.264C59.8088 18.264 59.8067 18.264 59.8046 18.264C59.8025 18.264 59.8004 18.264 59.7984 18.264C59.7963 18.264 59.7943 18.264 59.7922 18.264C59.7902 18.264 59.7882 18.264 59.7862 18.264C59.7842 18.264 59.7822 18.264 59.7803 18.264C59.7783 18.264 59.7764 18.264 59.7744 18.264C59.7725 18.264 59.7706 18.264 59.7687 18.264C59.7668 18.264 59.7649 18.264 59.763 18.264C59.7612 18.264 59.7593 18.264 59.7575 18.264C59.7556 18.264 59.7538 18.264 59.752 18.264C59.7502 18.264 59.7484 18.264 59.7467 18.264C59.7449 18.264 59.7432 18.264 59.7414 18.264C59.7397 18.264 59.738 18.264 59.7363 18.264C59.7346 18.264 59.7329 18.264 59.7312 18.264C59.7295 18.264 59.7279 18.264 59.7263 18.264C59.7246 18.264 59.723 18.264 59.7214 18.264C59.7198 18.264 59.7182 18.264 59.7166 18.264C59.7151 18.264 59.7135 18.264 59.712 18.264C59.7105 18.264 59.7089 18.264 59.7074 18.264C59.7059 18.264 59.7045 18.264 59.703 18.264C59.7015 18.264 59.7001 18.264 59.6986 18.264C59.6972 18.264 59.6958 18.264 59.6944 18.264C59.693 18.264 59.6916 18.264 59.6903 18.264C59.6889 18.264 59.6876 18.264 59.6862 18.264C59.6849 18.264 59.6836 18.264 59.6823 18.264C59.681 18.264 59.6797 18.264 59.6785 18.264C59.6772 18.264 59.676 18.264 59.6747 18.264C59.6735 18.264 59.6723 18.264 59.6711 18.264C59.6699 18.264 59.6688 18.264 59.6676 18.264C59.6664 18.264 59.6653 18.264 59.6642 18.264C59.6631 18.264 59.662 18.264 59.6609 18.264C59.6598 18.264 59.6587 18.264 59.6577 18.264C59.6566 18.264 59.6556 18.264 59.6546 18.264C59.6536 18.264 59.6526 18.264 59.6516 18.264C59.6506 18.264 59.6497 18.264 59.6487 18.264C59.6478 18.264 59.6469 18.264 59.646 18.264C59.6451 18.264 59.6442 18.264 59.6433 18.264C59.6425 18.264 59.6416 18.264 59.6408 18.264C59.6399 18.264 59.6391 18.264 59.6383 18.264C59.6375 18.264 59.6368 18.264 59.636 18.264C59.6352 18.264 59.6345 18.264 59.6338 18.264C59.6331 18.264 59.6324 18.264 59.6317 18.264C59.631 18.264 59.6303 18.264 59.6297 18.264C59.629 18.264 59.6284 18.264 59.6278 18.264C59.6272 18.264 59.6266 18.264 59.626 18.264C59.6254 18.264 59.6249 18.264 59.6243 18.264C59.6238 18.264 59.6233 18.264 59.6228 18.264C59.6223 18.264 59.6218 18.264 59.6214 18.264C59.6209 18.264 59.6205 18.264 59.62 18.264C59.6196 18.264 59.6192 18.264 59.6188 18.264C59.6184 18.264 59.6181 18.264 59.6177 18.264C59.6174 18.264 59.617 18.264 59.6167 18.264C59.6164 18.264 59.6161 18.264 59.6159 18.264C59.6156 18.264 59.6153 18.264 59.6151 18.264C59.6149 18.264 59.6147 18.264 59.6145 18.264C59.6143 18.264 59.6141 18.264 59.6139 18.264C59.6138 18.264 59.6136 18.264 59.6135 18.264C59.6134 18.264 59.6133 18.264 59.6132 18.264C59.6132 18.264 59.6131 18.264 59.6131 18.264C59.613 18.264 59.613 18.264 59.613 20.264C59.613 22.264 59.613 22.264 59.6131 22.264C59.6131 22.264 59.6132 22.264 59.6132 22.264C59.6133 22.264 59.6134 22.264 59.6135 22.264C59.6136 22.264 59.6138 22.264 59.6139 22.264C59.6141 22.264 59.6143 22.264 59.6145 22.264C59.6147 22.264 59.6149 22.264 59.6151 22.264C59.6153 22.264 59.6156 22.264 59.6159 22.264C59.6161 22.264 59.6164 22.264 59.6167 22.264C59.617 22.264 59.6174 22.264 59.6177 22.264C59.6181 22.264 59.6184 22.264 59.6188 22.264C59.6192 22.264 59.6196 22.264 59.62 22.264C59.6205 22.264 59.6209 22.264 59.6214 22.264C59.6218 22.264 59.6223 22.264 59.6228 22.264C59.6233 22.264 59.6238 22.264 59.6243 22.264C59.6249 22.264 59.6254 22.264 59.626 22.264C59.6266 22.264 59.6272 22.264 59.6278 22.264C59.6284 22.264 59.629 22.264 59.6297 22.264C59.6303 22.264 59.631 22.264 59.6317 22.264C59.6324 22.264 59.6331 22.264 59.6338 22.264C59.6345 22.264 59.6352 22.264 59.636 22.264C59.6368 22.264 59.6375 22.264 59.6383 22.264C59.6391 22.264 59.6399 22.264 59.6408 22.264C59.6416 22.264 59.6425 22.264 59.6433 22.264C59.6442 22.264 59.6451 22.264 59.646 22.264C59.6469 22.264 59.6478 22.264 59.6487 22.264C59.6497 22.264 59.6506 22.264 59.6516 22.264C59.6526 22.264 59.6536 22.264 59.6546 22.264C59.6556 22.264 59.6566 22.264 59.6577 22.264C59.6587 22.264 59.6598 22.264 59.6609 22.264C59.662 22.264 59.6631 22.264 59.6642 22.264C59.6653 22.264 59.6664 22.264 59.6676 22.264C59.6688 22.264 59.6699 22.264 59.6711 22.264C59.6723 22.264 59.6735 22.264 59.6747 22.264C59.676 22.264 59.6772 22.264 59.6785 22.264C59.6797 22.264 59.681 22.264 59.6823 22.264C59.6836 22.264 59.6849 22.264 59.6862 22.264C59.6876 22.264 59.6889 22.264 59.6903 22.264C59.6916 22.264 59.693 22.264 59.6944 22.264C59.6958 22.264 59.6972 22.264 59.6986 22.264C59.7001 22.264 59.7015 22.264 59.703 22.264C59.7045 22.264 59.7059 22.264 59.7074 22.264C59.7089 22.264 59.7105 22.264 59.712 22.264C59.7135 22.264 59.7151 22.264 59.7166 22.264C59.7182 22.264 59.7198 22.264 59.7214 22.264C59.723 22.264 59.7246 22.264 59.7263 22.264C59.7279 22.264 59.7295 22.264 59.7312 22.264C59.7329 22.264 59.7346 22.264 59.7363 22.264C59.738 22.264 59.7397 22.264 59.7414 22.264C59.7432 22.264 59.7449 22.264 59.7467 22.264C59.7484 22.264 59.7502 22.264 59.752 22.264C59.7538 22.264 59.7556 22.264 59.7575 22.264C59.7593 22.264 59.7612 22.264 59.763 22.264C59.7649 22.264 59.7668 22.264 59.7687 22.264C59.7706 22.264 59.7725 22.264 59.7744 22.264C59.7764 22.264 59.7783 22.264 59.7803 22.264C59.7822 22.264 59.7842 22.264 59.7862 22.264C59.7882 22.264 59.7902 22.264 59.7922 22.264C59.7943 22.264 59.7963 22.264 59.7984 22.264C59.8004 22.264 59.8025 22.264 59.8046 22.264C59.8067 22.264 59.8088 22.264 59.8109 22.264C59.813 22.264 59.8152 22.264 59.8173 22.264C59.8195 22.264 59.8217 22.264 59.8239 22.264C59.826 22.264 59.8282 22.264 59.8305 22.264C59.8327 22.264 59.8349 22.264 59.8372 22.264C59.8394 22.264 59.8417 22.264 59.8439 22.264C59.8462 22.264 59.8485 22.264 59.8508 22.264C59.8531 22.264 59.8555 22.264 59.8578 22.264C59.8602 22.264 59.8625 22.264 59.8649 22.264C59.8673 22.264 59.8696 22.264 59.872 22.264C59.8744 22.264 59.8769 22.264 59.8793 22.264C59.8817 22.264 59.8842 22.264 59.8866 22.264C59.8891 22.264 59.8916 22.264 59.8941 22.264C59.8966 22.264 59.8991 22.264 59.9016 22.264C59.9041 22.264 59.9067 22.264 59.9092 22.264C59.9118 22.264 59.9143 22.264 59.9169 22.264C59.9195 22.264 59.9221 22.264 59.9247 22.264C59.9273 22.264 59.93 22.264 59.9326 22.264C59.9352 22.264 59.9379 22.264 59.9406 22.264C59.9432 22.264 59.9459 22.264 59.9486 22.264C59.9513 22.264 59.954 22.264 59.9568 22.264C59.9595 22.264 59.9622 22.264 59.965 22.264C59.9678 22.264 59.9705 22.264 59.9733 22.264C59.9761 22.264 59.9789 22.264 59.9817 22.264C59.9845 22.264 59.9874 22.264 59.9902 22.264C59.9931 22.264 59.9959 22.264 59.9988 22.264C60.0017 22.264 60.0046 22.264 60.0075 22.264C60.0104 22.264 60.0133 22.264 60.0162 22.264C60.0191 22.264 60.0221 22.264 60.025 22.264C60.028 22.264 60.031 22.264 60.0339 22.264C60.0369 22.264 60.0399 22.264 60.0429 22.264C60.046 22.264 60.049 22.264 60.052 22.264C60.0551 22.264 60.0581 22.264 60.0612 22.264C60.0643 22.264 60.0673 22.264 60.0704 22.264C60.0735 22.264 60.0767 22.264 60.0798 22.264C60.0829 22.264 60.086 22.264 60.0892 22.264C60.0923 22.264 60.0955 22.264 60.0987 22.264C60.1019 22.264 60.1051 22.264 60.1083 22.264C60.1115 22.264 60.1147 22.264 60.1179 22.264C60.1212 22.264 60.1244 22.264 60.1277 22.264C60.1309 22.264 60.1342 22.264 60.1375 22.264C60.1408 22.264 60.1441 22.264 60.1474 22.264C60.1507 22.264 60.154 22.264 60.1573 22.264C60.1607 22.264 60.164 22.264 60.1674 22.264C60.1708 22.264 60.1741 22.264 60.1775 22.264C60.1809 22.264 60.1843 22.264 60.1877 22.264C60.1912 22.264 60.1946 22.264 60.198 22.264C60.2015 22.264 60.2049 22.264 60.2084 22.264C60.2119 22.264 60.2153 22.264 60.2188 22.264C60.2223 22.264 60.2258 22.264 60.2294 22.264C60.2329 22.264 60.2364 22.264 60.2399 22.264C60.2435 22.264 60.2471 22.264 60.2506 22.264C60.2542 22.264 60.2578 22.264 60.2614 22.264C60.265 22.264 60.2686 22.264 60.2722 22.264C60.2758 22.264 60.2794 22.264 60.2831 22.264C60.2867 22.264 60.2904 22.264 60.2941 22.264C60.2977 22.264 60.3014 22.264 60.3051 22.264C60.3088 22.264 60.3125 22.264 60.3162 22.264C60.3199 22.264 60.3237 22.264 60.3274 22.264C60.3312 22.264 60.3349 22.264 60.3387 22.264C60.3424 22.264 60.3462 22.264 60.35 22.264C60.3538 22.264 60.3576 22.264 60.3614 22.264C60.3652 22.264 60.3691 22.264 60.3729 22.264C60.3767 22.264 60.3806 22.264 60.3844 22.264C60.3883 22.264 60.3922 22.264 60.3961 22.264C60.4 22.264 60.4038 22.264 60.4078 22.264C60.4117 22.264 60.4156 22.264 60.4195 22.264C60.4235 22.264 60.4274 22.264 60.4314 22.264C60.4353 22.264 60.4393 22.264 60.4433 22.264C60.4472 22.264 60.4512 22.264 60.4552 22.264C60.4592 22.264 60.4632 22.264 60.4673 22.264C60.4713 22.264 60.4753 22.264 60.4794 22.264C60.4834 22.264 60.4875 22.264 60.4915 22.264C60.4956 22.264 60.4997 22.264 60.5038 22.264C60.5079 22.264 60.512 22.264 60.5161 22.264C60.5202 22.264 60.5243 22.264 60.5285 22.264C60.5326 22.264 60.5368 22.264 60.5409 22.264C60.5451 22.264 60.5492 22.264 60.5534 22.264C60.5576 22.264 60.5618 22.264 60.566 22.264C60.5702 22.264 60.5744 22.264 60.5786 22.264C60.5829 22.264 60.5871 22.264 60.5913 22.264C60.5956 22.264 60.5998 22.264 60.6041 22.264C60.6084 22.264 60.6126 22.264 60.6169 22.264C60.6212 22.264 60.6255 22.264 60.6298 22.264C60.6341 22.264 60.6385 22.264 60.6428 22.264C60.6471 22.264 60.6515 22.264 60.6558 22.264C60.6602 22.264 60.6645 22.264 60.6689 22.264C60.6733 22.264 60.6776 22.264 60.682 22.264C60.6864 22.264 60.6908 22.264 60.6952 22.264C60.6997 22.264 60.7041 22.264 60.7085 22.264C60.7129 22.264 60.7174 22.264 60.7218 22.264C60.7263 22.264 60.7308 22.264 60.7352 22.264C60.7397 22.264 60.7442 22.264 60.7487 22.264C60.7532 22.264 60.7577 22.264 60.7622 22.264C60.7667 22.264 60.7712 22.264 60.7758 22.264C60.7803 22.264 60.7848 22.264 60.7894 22.264C60.7939 22.264 60.7985 22.264 60.8031 22.264C60.8077 22.264 60.8122 22.264 60.8168 22.264C60.8214 22.264 60.826 22.264 60.8306 22.264C60.8352 22.264 60.8399 22.264 60.8445 22.264C60.8491 22.264 60.8538 22.264 60.8584 22.264C60.8631 22.264 60.8677 22.264 60.8724 22.264C60.8771 22.264 60.8817 22.264 60.8864 22.264C60.8911 22.264 60.8958 22.264 60.9005 22.264C60.9052 22.264 60.9099 22.264 60.9146 22.264C60.9194 22.264 60.9241 22.264 60.9288 22.264C60.9336 22.264 60.9383 22.264 60.9431 22.264C60.9479 22.264 60.9526 22.264 60.9574 22.264C60.9622 22.264 60.967 22.264 60.9718 22.264C60.9766 22.264 60.9814 22.264 60.9862 22.264C60.991 22.264 60.9958 22.264 61.0007 22.264C61.0055 22.264 61.0103 22.264 61.0152 22.264C61.02 22.264 61.0249 22.264 61.0298 22.264C61.0346 22.264 61.0395 22.264 61.0444 22.264C61.0493 22.264 61.0542 22.264 61.0591 22.264C61.064 22.264 61.0689 22.264 61.0738 22.264C61.0787 22.264 61.0836 22.264 61.0886 22.264C61.0935 22.264 61.0985 22.264 61.1034 22.264C61.1084 22.264 61.1133 22.264 61.1183 22.264C61.1233 22.264 61.1282 22.264 61.1332 22.264C61.1382 22.264 61.1432 22.264 61.1482 22.264C61.1532 22.264 61.1582 22.264 61.1632 22.264C61.1683 22.264 61.1733 22.264 61.1783 22.264C61.1834 22.264 61.1884 22.264 61.1934 22.264C61.1985 22.264 61.2036 22.264 61.2086 22.264C61.2137 22.264 61.2188 22.264 61.2238 22.264C61.2289 22.264 61.234 22.264 61.2391 22.264C61.2442 22.264 61.2493 22.264 61.2544 22.264C61.2596 22.264 61.2647 22.264 61.2698 22.264C61.2749 22.264 61.2801 22.264 61.2852 22.264C61.2904 22.264 61.2955 22.264 61.3007 22.264C61.3058 22.264 61.311 22.264 61.3162 22.264C61.3213 22.264 61.3265 22.264 61.3317 22.264C61.3369 22.264 61.3421 22.264 61.3473 22.264C61.3525 22.264 61.3577 22.264 61.3629 22.264C61.3682 22.264 61.3734 22.264 61.3786 22.264C61.3839 22.264 61.3891 22.264 61.3944 22.264C61.3996 22.264 61.4049 22.264 61.4101 22.264C61.4154 22.264 61.4207 22.264 61.4259 22.264C61.4312 22.264 61.4365 22.264 61.4418 22.264C61.4471 22.264 61.4524 22.264 61.4577 22.264C61.463 22.264 61.4683 22.264 61.4736 22.264C61.4789 22.264 61.4843 22.264 61.4896 22.264C61.4949 22.264 61.5003 22.264 61.5056 22.264C61.511 22.264 61.5163 22.264 61.5217 22.264C61.527 22.264 61.5324 22.264 61.5378 22.264C61.5431 22.264 61.5485 22.264 61.5539 22.264C61.5593 22.264 61.5647 22.264 61.5701 22.264C61.5755 22.264 61.5809 22.264 61.5863 22.264C61.5917 22.264 61.5971 22.264 61.6025 22.264C61.608 22.264 61.6134 22.264 61.6188 22.264C61.6243 22.264 61.6297 22.264 61.6352 22.264C61.6406 22.264 61.6461 22.264 61.6515 22.264C61.657 22.264 61.6625 22.264 61.6679 22.264C61.6734 22.264 61.6789 22.264 61.6844 22.264C61.6899 22.264 61.6954 22.264 61.7009 22.264C61.7064 22.264 61.7119 22.264 61.7174 22.264C61.7229 22.264 61.7284 22.264 61.7339 22.264C61.7394 22.264 61.745 22.264 61.7505 22.264C61.756 22.264 61.7616 22.264 61.7671 22.264C61.7727 22.264 61.7782 22.264 61.7838 22.264C61.7893 22.264 61.7949 22.264 61.8005 22.264C61.806 22.264 61.8116 22.264 61.8172 22.264C61.8228 22.264 61.8284 22.264 61.8339 22.264C61.8395 22.264 61.8451 22.264 61.8507 22.264C61.8563 22.264 61.8619 22.264 61.8676 22.264C61.8732 22.264 61.8788 22.264 61.8844 22.264C61.89 22.264 61.8957 22.264 61.9013 22.264C61.9069 22.264 61.9126 22.264 61.9182 22.264C61.9238 22.264 61.9295 22.264 61.9351 22.264C61.9408 22.264 61.9465 22.264 61.9521 22.264C61.9578 22.264 61.9635 22.264 61.9691 22.264C61.9748 22.264 61.9805 22.264 61.9862 22.264C61.9919 22.264 61.9975 22.264 62.0032 22.264C62.0089 22.264 62.0146 22.264 62.0203 22.264C62.026 22.264 62.0317 22.264 62.0375 22.264C62.0432 22.264 62.0489 22.264 62.0546 22.264C62.0603 22.264 62.0661 22.264 62.0718 22.264C62.0775 22.264 62.0833 22.264 62.089 22.264C62.0947 22.264 62.1005 22.264 62.1062 22.264C62.112 22.264 62.1177 22.264 62.1235 22.264C62.1292 22.264 62.135 22.264 62.1408 22.264C62.1465 22.264 62.1523 22.264 62.1581 22.264C62.1639 22.264 62.1696 22.264 62.1754 22.264C62.1812 22.264 62.187 22.264 62.1928 22.264C62.1986 22.264 62.2044 22.264 62.2102 22.264C62.216 22.264 62.2218 22.264 62.2276 22.264C62.2334 22.264 62.2392 22.264 62.245 22.264C62.2509 22.264 62.2567 22.264 62.2625 22.264C62.2683 22.264 62.2742 22.264 62.28 22.264C62.2858 22.264 62.2916 22.264 62.2975 22.264C62.3033 22.264 62.3092 22.264 62.315 22.264C62.3209 22.264 62.3267 22.264 62.3326 22.264C62.3384 22.264 62.3443 22.264 62.3502 22.264C62.356 22.264 62.3619 22.264 62.3677 22.264C62.3736 22.264 62.3795 22.264 62.3854 22.264C62.3912 22.264 62.3971 22.264 62.403 22.264C62.4089 22.264 62.4148 22.264 62.4207 22.264C62.4265 22.264 62.4324 22.264 62.4383 22.264C62.4442 22.264 62.4501 22.264 62.456 22.264C62.4619 22.264 62.4678 22.264 62.4738 22.264C62.4797 22.264 62.4856 22.264 62.4915 22.264C62.4974 22.264 62.5033 22.264 62.5092 22.264C62.5152 22.264 62.5211 22.264 62.527 22.264C62.5329 22.264 62.5389 22.264 62.5448 22.264C62.5507 22.264 62.5567 22.264 62.5626 22.264C62.5686 22.264 62.5745 22.264 62.5804 22.264C62.5864 22.264 62.5923 22.264 62.5983 22.264C62.6042 22.264 62.6102 22.264 62.6161 22.264C62.6221 22.264 62.628 22.264 62.634 22.264C62.64 22.264 62.6459 22.264 62.6519 22.264C62.6579 22.264 62.6638 22.264 62.6698 22.264C62.6758 22.264 62.6817 22.264 62.6877 22.264C62.6937 22.264 62.6997 22.264 62.7057 22.264C62.7116 22.264 62.7176 22.264 62.7236 22.264C62.7296 22.264 62.7356 22.264 62.7416 22.264C62.7475 22.264 62.7535 22.264 62.7595 22.264C62.7655 22.264 62.7715 22.264 62.7775 22.264C62.7835 22.264 62.7895 22.264 62.7955 22.264C62.8015 22.264 62.8075 22.264 62.8135 22.264C62.8195 22.264 62.8255 22.264 62.8315 22.264C62.8376 22.264 62.8436 22.264 62.8496 22.264C62.8556 22.264 62.8616 22.264 62.8676 22.264C62.8736 22.264 62.8797 22.264 62.8857 22.264C62.8917 22.264 62.8977 22.264 62.9037 22.264C62.9098 22.264 62.9158 22.264 62.9218 22.264C62.9278 22.264 62.9339 22.264 62.9399 22.264C62.9459 22.264 62.952 22.264 62.958 22.264C62.964 22.264 62.97 22.264 62.9761 22.264C62.9821 22.264 62.9882 22.264 62.9942 22.264C63.0002 22.264 63.0063 22.264 63.0123 22.264C63.0183 22.264 63.0244 22.264 63.0304 22.264C63.0365 22.264 63.0425 22.264 63.0486 22.264C63.0546 22.264 63.0607 22.264 63.0667 22.264C63.0727 22.264 63.0788 22.264 63.0848 22.264C63.0909 22.264 63.0969 22.264 63.103 22.264C63.109 22.264 63.1151 22.264 63.1211 22.264C63.1272 22.264 63.1333 22.264 63.1393 22.264C63.1454 22.264 63.1514 22.264 63.1575 22.264C63.1635 22.264 63.1696 22.264 63.1756 22.264C63.1817 22.264 63.1878 22.264 63.1938 22.264C63.1999 22.264 63.2059 22.264 63.212 22.264C63.2181 22.264 63.2241 22.264 63.2302 22.264C63.2362 22.264 63.2423 22.264 63.2484 22.264C63.2544 22.264 63.2605 22.264 63.2665 22.264C63.2726 22.264 63.2787 22.264 63.2847 22.264C63.2908 22.264 63.2969 22.264 63.3029 22.264C63.309 22.264 63.315 22.264 63.3211 22.264C63.3272 22.264 63.3332 22.264 63.3393 22.264C63.3454 22.264 63.3514 22.264 63.3575 22.264C63.3636 22.264 63.3696 22.264 63.3757 22.264C63.3817 22.264 63.3878 22.264 63.3939 22.264C63.3999 22.264 63.406 22.264 63.4121 22.264C63.4181 22.264 63.4242 22.264 63.4303 22.264C63.4363 22.264 63.4424 22.264 63.4484 22.264C63.4545 22.264 63.4606 22.264 63.4666 22.264C63.4727 22.264 63.4788 22.264 63.4848 22.264C63.4909 22.264 63.4969 22.264 63.503 22.264C63.5091 22.264 63.5151 22.264 63.5212 22.264C63.5272 22.264 63.5333 22.264 63.5394 22.264C63.5454 22.264 63.5515 22.264 63.5575 22.264C63.5636 22.264 63.5696 22.264 63.5757 22.264C63.5818 22.264 63.5878 22.264 63.5939 22.264C63.5999 22.264 63.606 22.264 63.612 22.264C63.6181 22.264 63.6241 22.264 63.6302 22.264C63.6362 22.264 63.6423 22.264 63.6483 22.264C63.6544 22.264 63.6604 22.264 63.6665 22.264C63.6725 22.264 63.6786 22.264 63.6846 22.264C63.6907 22.264 63.6967 22.264 63.7027 22.264C63.7088 22.264 63.7148 22.264 63.7209 22.264C63.7269 22.264 63.7329 22.264 63.739 22.264C63.745 22.264 63.7511 22.264 63.7571 22.264C63.7631 22.264 63.7692 22.264 63.7752 22.264C63.7812 22.264 63.7873 22.264 63.7933 22.264C63.7993 22.264 63.8053 22.264 63.8114 22.264C63.8174 22.264 63.8234 22.264 63.8294 22.264C63.8355 22.264 63.8415 22.264 63.8475 22.264C63.8535 22.264 63.8595 22.264 63.8656 22.264C63.8716 22.264 63.8776 22.264 63.8836 22.264C63.8896 22.264 63.8956 22.264 63.9016 22.264C63.9076 22.264 63.9137 22.264 63.9197 22.264C63.9257 22.264 63.9317 22.264 63.9377 22.264C63.9437 22.264 63.9497 22.264 63.9557 22.264C63.9617 22.264 63.9677 22.264 63.9737 22.264C63.9796 22.264 63.9856 22.264 63.9916 22.264C63.9976 22.264 64.0036 22.264 64.0096 22.264C64.0156 22.264 64.0216 22.264 64.0275 22.264C64.0335 22.264 64.0395 22.264 64.0455 22.264C64.0514 22.264 64.0574 22.264 64.0634 22.264C64.0694 22.264 64.0753 22.264 64.0813 22.264C64.0872 22.264 64.0932 22.264 64.0992 22.264C64.1051 22.264 64.1111 22.264 64.1171 22.264C64.123 22.264 64.129 22.264 64.1349 22.264C64.1409 22.264 64.1468 22.264 64.1527 22.264C64.1587 22.264 64.1646 22.264 64.1706 22.264C64.1765 22.264 64.1824 22.264 64.1884 22.264C64.1943 22.264 64.2002 22.264 64.2062 22.264C64.2121 22.264 64.218 22.264 64.2239 22.264C64.2299 22.264 64.2358 22.264 64.2417 22.264C64.2476 22.264 64.2535 22.264 64.2594 22.264C64.2653 22.264 64.2712 22.264 64.2772 22.264C64.2831 22.264 64.289 22.264 64.2949 22.264C64.3007 22.264 64.3066 22.264 64.3125 22.264C64.3184 22.264 64.3243 22.264 64.3302 22.264C64.3361 22.264 64.3419 22.264 64.3478 22.264C64.3537 22.264 64.3596 22.264 64.3654 22.264C64.3713 22.264 64.3772 22.264 64.383 22.264C64.3889 22.264 64.3948 22.264 64.4006 22.264C64.4065 22.264 64.4123 22.264 64.4182 22.264C64.424 22.264 64.4299 22.264 64.4357 22.264C64.4415 22.264 64.4474 22.264 64.4532 22.264C64.459 22.264 64.4649 22.264 64.4707 22.264C64.4765 22.264 64.4823 22.264 64.4882 22.264C64.494 22.264 64.4998 22.264 64.5056 22.264C64.5114 22.264 64.5172 22.264 64.523 22.264C64.5288 22.264 64.5346 22.264 64.5404 22.264C64.5462 22.264 64.552 22.264 64.5578 22.264C64.5636 22.264 64.5693 22.264 64.5751 22.264C64.5809 22.264 64.5867 22.264 64.5924 22.264C64.5982 22.264 64.604 22.264 64.6097 22.264C64.6155 22.264 64.6212 22.264 64.627 22.264C64.6327 22.264 64.6385 22.264 64.6442 22.264C64.6499 22.264 64.6557 22.264 64.6614 22.264C64.6672 22.264 64.6729 22.264 64.6786 22.264C64.6843 22.264 64.69 22.264 64.6958 22.264C64.7015 22.264 64.7072 22.264 64.7129 22.264C64.7186 22.264 64.7243 22.264 64.73 22.264C64.7357 22.264 64.7414 22.264 64.747 22.264C64.7527 22.264 64.7584 22.264 64.7641 22.264C64.7698 22.264 64.7754 22.264 64.7811 22.264C64.7868 22.264 64.7924 22.264 64.7981 22.264C64.8037 22.264 64.8094 22.264 64.815 22.264C64.8206 22.264 64.8263 22.264 64.8319 22.264C64.8376 22.264 64.8432 22.264 64.8488 22.264C64.8544 22.264 64.86 22.264 64.8657 22.264C64.8713 22.264 64.8769 22.264 64.8825 22.264C64.8881 22.264 64.8937 22.264 64.8993 22.264C64.9049 22.264 64.9104 22.264 64.916 22.264C64.9216 22.264 64.9272 22.264 64.9327 22.264C64.9383 22.264 64.9439 22.264 64.9494 22.264C64.955 22.264 64.9605 22.264 64.9661 22.264C64.9716 22.264 64.9772 22.264 64.9827 22.264C64.9882 22.264 64.9938 22.264 64.9993 22.264C65.0048 22.264 65.0103 22.264 65.0158 22.264C65.0214 22.264 65.0269 22.264 65.0324 22.264C65.0379 22.264 65.0434 22.264 65.0488 22.264C65.0543 22.264 65.0598 22.264 65.0653 22.264C65.0708 22.264 65.0762 22.264 65.0817 22.264C65.0872 22.264 65.0926 22.264 65.0981 22.264C65.1035 22.264 65.1089 22.264 65.1144 22.264C65.1198 22.264 65.1253 22.264 65.1307 22.264C65.1361 22.264 65.1415 22.264 65.1469 22.264C65.1524 22.264 65.1578 22.264 65.1632 22.264C65.1686 22.264 65.174 22.264 65.1793 22.264C65.1847 22.264 65.1901 22.264 65.1955 22.264C65.2008 22.264 65.2062 22.264 65.2116 22.264C65.2169 22.264 65.2223 22.264 65.2276 22.264C65.233 22.264 65.2383 22.264 65.2437 22.264C65.249 22.264 65.2543 22.264 65.2596 22.264C65.2649 22.264 65.2703 22.264 65.2756 22.264C65.2809 22.264 65.2862 22.264 65.2915 22.264C65.2968 22.264 65.302 22.264 65.3073 22.264C65.3126 22.264 65.3179 22.264 65.3231 22.264C65.3284 22.264 65.3336 22.264 65.3389 22.264C65.3441 22.264 65.3494 22.264 65.3546 22.264C65.3598 22.264 65.3651 22.264 65.3703 22.264C65.3755 22.264 65.3807 22.264 65.3859 22.264C65.3911 22.264 65.3963 22.264 65.4015 22.264C65.4067 22.264 65.4119 22.264 65.4171 22.264C65.4222 22.264 65.4274 22.264 65.4326 22.264C65.4377 22.264 65.4429 22.264 65.448 22.264C65.4532 22.264 65.4583 22.264 65.4634 22.264C65.4686 22.264 65.4737 22.264 65.4788 22.264C65.4839 22.264 65.489 22.264 65.4941 22.264C65.4992 22.264 65.5043 22.264 65.5094 22.264C65.5145 22.264 65.5196 22.264 65.5246 22.264C65.5297 22.264 65.5348 22.264 65.5398 22.264C65.5449 22.264 65.5499 22.264 65.5549 22.264C65.56 22.264 65.565 22.264 65.57 22.264C65.575 22.264 65.5801 22.264 65.5851 22.264C65.5901 22.264 65.5951 22.264 65.6 22.264C65.605 22.264 65.61 22.264 65.615 22.264C65.6199 22.264 65.6249 22.264 65.6299 22.264C65.6348 22.264 65.6398 22.264 65.6447 22.264C65.6496 22.264 65.6546 22.264 65.6595 22.264C65.6644 22.264 65.6693 22.264 65.6742 22.264C65.6791 22.264 65.684 22.264 65.6889 22.264C65.6938 22.264 65.6987 22.264 65.7035 22.264C65.7084 22.264 65.7132 22.264 65.7181 22.264C65.7229 22.264 65.7278 22.264 65.7326 22.264C65.7374 22.264 65.7423 22.264 65.7471 22.264C65.7519 22.264 65.7567 22.264 65.7615 22.264C65.7663 22.264 65.7711 22.264 65.7759 22.264C65.7806 22.264 65.7854 22.264 65.7902 22.264C65.7949 22.264 65.7997 22.264 65.8044 22.264C65.8092 22.264 65.8139 22.264 65.8186 22.264C65.8234 22.264 65.8281 22.264 65.8328 22.264C65.8375 22.264 65.8422 22.264 65.8469 22.264C65.8516 22.264 65.8562 22.264 65.8609 22.264C65.8656 22.264 65.8702 22.264 65.8749 22.264C65.8795 22.264 65.8842 22.264 65.8888 22.264C65.8934 22.264 65.8981 22.264 65.9027 22.264C65.9073 22.264 65.9119 22.264 65.9165 22.264C65.9211 22.264 65.9256 22.264 65.9302 22.264C65.9348 22.264 65.9394 22.264 65.9439 22.264C65.9485 22.264 65.953 22.264 65.9575 22.264C65.9621 22.264 65.9666 22.264 65.9711 22.264C65.9756 22.264 65.9801 22.264 65.9846 22.264C65.9891 22.264 65.9936 22.264 65.9981 22.264C66.0025 22.264 66.007 22.264 66.0115 22.264C66.0159 22.264 66.0204 22.264 66.0248 22.264C66.0292 22.264 66.0337 22.264 66.0381 22.264C66.0425 22.264 66.0469 22.264 66.0513 22.264C66.0557 22.264 66.0601 22.264 66.0644 22.264C66.0688 22.264 66.0732 22.264 66.0775 22.264C66.0819 22.264 66.0862 22.264 66.0905 22.264C66.0949 22.264 66.0992 22.264 66.1035 22.264C66.1078 22.264 66.1121 22.264 66.1164 22.264C66.1207 22.264 66.125 22.264 66.1292 22.264C66.1335 22.264 66.1377 22.264 66.142 22.264C66.1462 22.264 66.1505 22.264 66.1547 22.264C66.1589 22.264 66.1631 22.264 66.1673 22.264C66.1715 22.264 66.1757 22.264 66.1799 22.264C66.1841 22.264 66.1883 22.264 66.1924 22.264C66.1966 22.264 66.2007 22.264 66.2049 22.264C66.209 22.264 66.2131 22.264 66.2172 22.264C66.2214 22.264 66.2255 22.264 66.2296 22.264C66.2337 22.264 66.2377 22.264 66.2418 22.264C66.2459 22.264 66.2499 22.264 66.254 22.264C66.258 22.264 66.2621 22.264 66.2661 22.264C66.2701 22.264 66.2741 22.264 66.2781 22.264C66.2821 22.264 66.2861 22.264 66.2901 22.264C66.2941 22.264 66.298 22.264 66.302 22.264C66.306 22.264 66.3099 22.264 66.3138 22.264C66.3178 22.264 66.3217 22.264 66.3256 22.264C66.3295 22.264 66.3334 22.264 66.3373 22.264C66.3412 22.264 66.3451 22.264 66.3489 22.264C66.3528 22.264 66.3566 22.264 66.3605 22.264C66.3643 22.264 66.3681 22.264 66.3719 22.264C66.3758 22.264 66.3796 22.264 66.3834 22.264C66.3872 22.264 66.3909 22.264 66.3947 22.264C66.3985 22.264 66.4022 22.264 66.406 22.264C66.4097 22.264 66.4134 22.264 66.4172 22.264C66.4209 22.264 66.4246 22.264 66.4283 22.264C66.432 22.264 66.4357 22.264 66.4393 22.264C66.443 22.264 66.4466 22.264 66.4503 22.264C66.4539 22.264 66.4576 22.264 66.4612 22.264C66.4648 22.264 66.4684 22.264 66.472 22.264C66.4756 22.264 66.4792 22.264 66.4828 22.264C66.4863 22.264 66.4899 22.264 66.4934 22.264C66.497 22.264 66.5005 22.264 66.504 22.264C66.5076 22.264 66.5111 22.264 66.5146 22.264C66.5181 22.264 66.5215 22.264 66.525 22.264V18.264ZM57.6135 20.2205C57.5751 21.984 56.9132 23.8647 55.9007 25.6695L59.3893 27.6265C60.5848 25.4953 61.5549 22.96 61.6125 20.3075L57.6135 20.2205ZM57.645 26.648C59.1605 25.343 59.1605 25.3429 59.1605 25.3429C59.1605 25.3429 59.1604 25.3428 59.1603 25.3427C59.1602 25.3426 59.16 25.3423 59.1597 25.342C59.1592 25.3414 59.1584 25.3405 59.1573 25.3392C59.1552 25.3367 59.152 25.333 59.1477 25.3281C59.1393 25.3182 59.1267 25.3036 59.1102 25.2845C59.0772 25.2462 59.0288 25.1899 58.9667 25.1178C58.8425 24.9736 58.6639 24.7661 58.4461 24.513C58.0104 24.0069 57.4181 23.3186 56.7913 22.5898C55.5359 21.1302 54.1476 19.5146 53.5995 18.8711L50.5545 21.4649C51.1104 22.1174 52.5061 23.7418 53.7587 25.1982C54.3859 25.9274 54.9786 26.6161 55.4144 27.1225C55.6324 27.3757 55.8111 27.5833 55.9354 27.7276C55.9975 27.7998 56.046 27.8561 56.079 27.8944C56.0955 27.9136 56.1081 27.9282 56.1166 27.9381C56.1208 27.943 56.1241 27.9468 56.1262 27.9493C56.1273 27.9505 56.1281 27.9515 56.1286 27.9521C56.1289 27.9524 56.1291 27.9526 56.1293 27.9528C56.1293 27.9529 56.1294 27.9529 56.1294 27.953C56.1294 27.953 56.1295 27.953 57.645 26.648ZM53.1459 21.8584C54.7429 20.8486 56.5413 19.7088 57.9393 18.0153C59.3993 16.2467 60.3345 14.0009 60.5521 10.9L56.5619 10.62C56.3955 12.9911 55.7227 14.4173 54.8547 15.4687C53.9247 16.5952 52.6751 17.4234 51.0081 18.4776L53.1459 21.8584ZM60.551 10.9147C60.7985 7.72529 60.0503 5.04873 58.3265 3.04695C56.6274 1.07373 54.1933 0.00408953 51.5353 -0.429867L50.8907 3.51786C52.9367 3.85191 54.3906 4.60626 55.2955 5.65704C56.1757 6.67926 56.7475 8.22671 56.563 10.6053L60.551 10.9147ZM51.5418 -0.428789C44.0357 -1.6798 38.3342 2.36477 37.162 7.79391L41.072 8.63809C41.7238 5.61923 45.1423 2.5598 50.8842 3.51679L51.5418 -0.428789ZM37.164 7.78518C36.3151 11.6334 36.9414 15.552 39.9134 19.9039L43.2166 17.6481C40.8126 14.128 40.4789 11.3266 41.07 8.64682L37.164 7.78518ZM40.5501 17.0526C35.9915 19.7372 31.741 23.5784 31.741 30.488H35.741C35.741 25.6856 38.4985 22.9028 42.5799 20.4994L40.5501 17.0526ZM31.741 30.488C31.741 33.1344 32.5054 36.4321 34.7205 39.1075C36.9944 41.8539 40.6132 43.72 45.837 43.72V39.72C41.6528 39.72 39.2236 38.2741 37.8015 36.5565C36.3206 34.7679 35.741 32.4496 35.741 30.488H31.741ZM45.837 43.72C50.846 43.72 55.1085 41.775 58.4956 39.1175L56.0264 35.9705C53.1735 38.209 49.756 39.72 45.837 39.72V43.72ZM55.6519 38.7317C56.3934 39.7364 57.0153 40.5856 57.4516 41.1832C57.6698 41.482 57.8414 41.7179 57.9585 41.8789C58.017 41.9594 58.0618 42.0211 58.0919 42.0627C58.107 42.0834 58.1183 42.0991 58.1259 42.1096C58.1297 42.1148 58.1326 42.1187 58.1344 42.1213C58.1354 42.1226 58.1361 42.1236 58.1365 42.1242C58.1367 42.1245 58.1369 42.1247 58.137 42.1248C58.137 42.1249 58.1371 42.125 58.1371 42.125C58.1371 42.125 58.1371 42.125 58.1371 42.125C58.1371 42.125 58.1371 42.125 59.757 40.952C61.3769 39.779 61.3769 39.779 61.3769 39.7789C61.3768 39.7789 61.3768 39.7789 61.3768 39.7789C61.3768 39.7788 61.3767 39.7787 61.3766 39.7786C61.3765 39.7784 61.3763 39.7782 61.376 39.7778C61.3755 39.7771 61.3747 39.776 61.3737 39.7746C61.3717 39.7718 61.3687 39.7676 61.3647 39.7622C61.3568 39.7513 61.3451 39.7351 61.3297 39.7138C61.2988 39.6714 61.2533 39.6086 61.194 39.5271C61.0756 39.3641 60.9022 39.126 60.6824 38.8248C60.2427 38.2224 59.6166 37.3676 58.8701 36.3563L55.6519 38.7317ZM59.757 42.952H69.213V38.952H59.757V42.952ZM70.7773 39.7058L63.8172 30.9698L60.6888 33.4622L67.6488 42.1982L70.7773 39.7058ZM48.081 10.0156C48.134 9.84707 48.2893 9.64355 48.627 9.49529C48.7903 9.42357 48.9611 9.38317 49.1114 9.37182C49.1848 9.36627 49.2451 9.36827 49.2901 9.37329C49.3123 9.37576 49.3292 9.37878 49.3411 9.38139C49.347 9.38268 49.3514 9.38381 49.3544 9.38465C49.3574 9.38549 49.3588 9.38599 49.3588 9.38597L50.6672 5.60603C49.4762 5.19375 48.122 5.34849 47.019 5.83271C45.8807 6.33245 44.74 7.30493 44.265 8.81634L48.081 10.0156ZM49.399 9.39942C49.8547 9.54641 50.1011 9.75685 50.2032 9.9136C50.2612 10.0027 50.4032 10.2546 50.2082 10.909L54.0418 12.051C54.5188 10.4494 54.3488 8.94932 53.5548 7.7304C52.8049 6.57915 51.6593 5.92559 50.627 5.59258L49.399 9.39942ZM50.2034 10.9257C50.0669 11.3987 49.5483 11.9479 48.6592 12.453C48.2602 12.6796 47.8703 12.8492 47.578 12.962C47.4337 13.0176 47.3182 13.0575 47.2435 13.0821C47.2063 13.0944 47.1797 13.1027 47.1651 13.1072C47.1578 13.1094 47.1535 13.1107 47.1525 13.111C47.152 13.1111 47.1524 13.111 47.1535 13.1107C47.1541 13.1105 47.1549 13.1103 47.1559 13.11C47.1564 13.1099 47.157 13.1097 47.1576 13.1095C47.1579 13.1094 47.1584 13.1093 47.1585 13.1092C47.159 13.1091 47.1596 13.109 47.709 15.032C48.2584 16.955 48.259 16.9549 48.2596 16.9547C48.2598 16.9547 48.2604 16.9545 48.2608 16.9544C48.2616 16.9541 48.2625 16.9539 48.2634 16.9536C48.2653 16.9531 48.2675 16.9524 48.2698 16.9518C48.2746 16.9504 48.2802 16.9487 48.2867 16.9468C48.2998 16.943 48.3164 16.938 48.3363 16.9319C48.3762 16.9197 48.4296 16.9029 48.4949 16.8814C48.6252 16.8385 48.804 16.7764 49.0175 16.694C49.4407 16.5308 50.0198 16.2804 50.6348 15.931C51.7737 15.2841 53.4631 14.0573 54.0466 12.0343L50.2034 10.9257ZM47.709 15.032C49.1369 13.6316 49.1374 13.6321 49.138 13.6327C49.1381 13.6329 49.1387 13.6334 49.139 13.6337C49.1397 13.6344 49.1403 13.6351 49.1409 13.6357C49.1421 13.6369 49.1431 13.638 49.1441 13.6389C49.1459 13.6408 49.1472 13.6422 49.1479 13.643C49.1495 13.6446 49.1489 13.644 49.1464 13.6413C49.1414 13.6359 49.1287 13.6221 49.1097 13.6004C49.0715 13.5569 49.009 13.4828 48.9321 13.3818C48.7762 13.177 48.5737 12.8778 48.3942 12.5123C48.0302 11.7711 47.8235 10.898 48.0927 9.97713L44.2533 8.85486C43.6105 11.054 44.1718 12.9889 44.8038 14.2757C45.1223 14.9242 45.4748 15.444 45.7494 15.8047C45.8878 15.9865 46.0094 16.1317 46.1015 16.2369C46.1477 16.2895 46.1867 16.3324 46.2171 16.3651C46.2323 16.3815 46.2453 16.3953 46.2561 16.4065C46.2614 16.4121 46.2662 16.4171 46.2704 16.4214C46.2725 16.4236 46.2744 16.4256 46.2762 16.4274C46.2771 16.4283 46.278 16.4292 46.2788 16.43C46.2792 16.4304 46.2798 16.431 46.28 16.4313C46.2806 16.4318 46.2811 16.4324 47.709 15.032ZM49.1293 32.6138C45.1491 34.1982 43.133 31.7895 43.133 30.2H39.133C39.133 35.3305 44.7009 38.6818 50.6087 36.3302L49.1293 32.6138ZM43.133 30.2C43.133 28.3079 44.3278 26.9557 46.945 25.32L44.825 21.928C42.0662 23.6523 39.133 26.0441 39.133 30.2H43.133ZM44.369 24.9285C46.1251 26.9693 48.8375 30.3004 51.4911 33.533L54.5829 30.995C51.9565 27.7956 49.1969 24.4067 47.401 22.3195L44.369 24.9285ZM51.7083 30.7692C50.4705 31.8694 49.5244 32.4558 49.1262 32.615L50.6118 36.329C51.6536 35.9122 53.0115 34.9626 54.3657 33.7588L51.7083 30.7692ZM97.2761 25.352V23.352H95.4844L95.2882 25.133L97.2761 25.352ZM96.8921 16.616L94.934 17.0231L95.2652 18.616H96.8921V16.616ZM105.868 16.616V18.616H108.282L107.833 16.2445L105.868 16.616ZM106.06 25.352L108.042 25.6238L108.353 23.352H106.06V25.352ZM95.2882 25.133C95.0266 27.5066 94.0829 29.0917 92.844 30.1021C91.5797 31.1333 89.8359 31.704 87.7721 31.704V35.704C90.5563 35.704 93.2525 34.9307 95.3722 33.2019C97.5173 31.4523 98.9016 28.8614 99.2641 25.571L95.2882 25.133ZM87.7721 31.704C85.3427 31.704 83.3908 30.9169 82.0276 29.4182C80.6463 27.8997 79.6441 25.4017 79.6441 21.56H75.6441C75.6441 26.0703 76.826 29.6443 79.0686 32.1098C81.3294 34.5951 84.4416 35.704 87.7721 35.704V31.704ZM79.6441 21.56C79.6441 17.7507 80.6539 15.2492 82.0454 13.72C83.4207 12.2085 85.3772 11.416 87.7721 11.416V7.416C84.4551 7.416 81.3475 8.54346 79.0868 11.028C76.8423 13.4948 75.6441 17.0653 75.6441 21.56H79.6441ZM87.7721 11.416C89.6577 11.416 91.2426 11.9111 92.4301 12.7994C93.5988 13.6738 94.5195 15.0296 94.934 17.0231L98.8503 16.2089C98.2568 13.3544 96.8495 11.1102 94.8262 9.59655C92.8217 8.09693 90.3506 7.416 87.7721 7.416V11.416ZM96.8921 18.616H105.868V14.616H96.8921V18.616ZM107.833 16.2445C106.844 11.0136 104.397 6.76482 100.85 3.82595C97.3052 0.888714 92.7728 -0.648002 87.7721 -0.648002V3.352C91.9394 3.352 95.543 4.62328 98.2981 6.90604C101.051 9.18717 103.068 12.5704 103.903 16.9875L107.833 16.2445ZM87.7721 -0.648002C82.2238 -0.648002 77.0702 1.34405 73.3037 5.19813C69.5318 9.05781 67.2921 14.6382 67.2921 21.56H71.2921C71.2921 15.5218 73.2284 10.9982 76.1645 7.99386C79.106 4.98395 83.1925 3.352 87.7721 3.352V-0.648002ZM67.2921 21.56C67.2921 28.616 69.5263 34.1947 73.3136 38.0159C77.0932 41.8293 82.2501 43.72 87.7721 43.72V39.72C83.1661 39.72 79.083 38.1547 76.1546 35.2001C73.234 32.2533 71.2921 27.752 71.2921 21.56H67.2921ZM87.7721 43.72C92.7359 43.72 97.4116 42.2144 101.067 39.1332C104.735 36.0419 107.238 31.4794 108.042 25.6238L104.079 25.0802C103.394 30.0726 101.314 33.6941 98.4892 36.0748C95.6526 38.4656 91.9284 39.72 87.7721 39.72V43.72ZM106.06 23.352H97.2761V27.352H106.06V23.352Z" fill="#1E1E1D"/>
</g>
<defs>
<filter id="filter0_b_391_201" x="-3.08801" y="-3.56006" width="113.148" height="49.28" filterUnits="userSpaceOnUse" color-interpolation-filters="sRGB">
<feFlood flood-opacity="0" result="BackgroundImageFix"/>
<feGaussianBlur in="BackgroundImage" stdDeviation="2"/>
<feComposite in2="SourceAlpha" operator="in" result="effect1_backgroundBlur_391_201"/>
<feBlend mode="normal" in="SourceGraphic" in2="effect1_backgroundBlur_391_201" result="shape"/>
</filter>
</defs>
</svg>
